<svg width="696" height="131" viewBox="0 0 696 131" fill="none" xmlns="http://www.w3.org/2000/svg">
<g clip-path="url(#clip0_205_526)">
<path d="M81.5398 9.39002C82.5198 9.39002 84.7398 9.12002 88.2098 8.58002C91.6798 8.04002 93.9998 7.77002 95.1798 7.77002C97.4298 7.77002 99.4598 8.04002 101.27 8.58002C103.08 9.12002 105.01 10.17 107.06 11.73C108.33 12.9 109.26 14.13 109.85 15.4C110.44 16.67 110.73 17.89 110.73 19.07C110.73 20.83 110.12 22.37 108.9 23.69C107.68 25.01 106.28 25.67 104.72 25.67C102.76 25.96 100.96 26.11 99.2898 26.11C96.1598 26.11 91.3198 25.43 84.7698 24.06C78.2198 22.69 72.7398 22.01 68.3398 22.01C64.2298 22.01 59.2998 22.45 53.5298 23.33C53.5298 25.29 54.8198 27.07 57.4198 28.68C60.0098 30.29 62.0898 31.88 63.6498 33.45C65.2098 35.01 65.9998 36.68 65.9998 38.44C65.9998 39.22 65.4898 40.84 64.4598 43.28C63.4298 45.72 62.9198 47.63 62.9198 49C70.3498 49.88 75.5098 50.54 78.3898 50.98C81.2698 51.42 84.1098 52.72 86.8998 54.87C89.6898 57.02 91.5398 58.9 92.4698 60.52C93.3998 62.13 93.8598 63.58 93.8598 64.85C93.8598 66.71 93.1798 68.22 91.8098 69.4C90.4398 70.57 88.6798 71.16 86.5298 71.16C85.4498 71.16 84.6198 71.11 84.0398 71.01C83.4498 70.91 82.6198 70.57 81.5498 69.98C78.7098 69.3 75.5398 67.73 72.0198 65.29C68.4998 62.85 65.4698 61.28 62.9298 60.6V93.16C62.9298 94.33 62.9798 96.56 63.0798 99.83C63.1798 103.11 63.2298 105.18 63.2298 106.06C63.2298 113.78 62.7398 119.97 61.7598 124.61C60.7798 129.25 58.8298 131.19 55.8898 130.4C52.2698 129.52 49.5098 127.44 47.5998 124.17C45.6898 120.9 44.5898 119.11 44.2998 118.82C45.5698 117.94 46.6498 115.5 47.5298 111.49C48.4098 107.48 48.8498 100.64 48.8498 90.96V32.74L46.6498 28.05V23.36C43.4198 23.36 38.5798 24.22 32.1298 25.93C25.6798 27.64 21.2798 29.06 18.9298 30.18C16.5798 31.3 14.5498 32.06 12.8398 32.45C11.1298 32.84 9.63977 33.04 8.36977 33.04C5.33977 33.04 3.18977 32.19 1.91977 30.47C0.649766 28.76 0.00976562 27.17 0.00976562 25.7C1.96977 25.99 3.86977 26.14 5.72977 26.14C10.8098 26.14 17.5098 24.85 25.8198 22.25C34.1298 19.66 42.5898 16.95 51.1898 14.11C53.4398 13.04 58.0598 11.98 65.0498 10.96C72.0398 9.93002 77.5398 9.42002 81.5498 9.42002L81.5398 9.39002Z" fill="#332D2D"/>
<path d="M167.62 55.87V41.94C172.31 41.94 174.66 46.58 174.66 55.87C177.01 56.56 178.18 58.12 178.18 60.56C178.18 61.64 177.2 65.52 175.25 72.22C173.29 78.92 172.32 83.59 172.32 86.23C174.18 84.28 175.89 81.78 177.45 78.75C179.01 75.72 180.38 72.79 181.56 69.95C181.66 70.54 181.71 71.42 181.71 72.59C181.71 80.41 178.41 89.92 171.81 101.11C165.21 112.31 159.51 117.9 154.73 117.9C153.46 117.9 152.04 117.12 150.48 115.55C148.91 113.99 148.13 112.28 148.13 110.42C148.13 109.05 149.45 106.66 152.09 103.23C154.73 99.81 156.05 96.44 156.05 93.11C155.17 89 153.38 85.8 150.7 83.5C148.01 81.2 146.67 78.98 146.67 76.83C146.67 74.29 149.06 70.43 153.86 65.24C158.65 60.06 163.25 56.93 167.65 55.85L167.62 55.87ZM181.56 30.36C181.85 31.14 182 31.83 182 32.41C182 34.56 180.43 36.15 177.31 37.18C174.18 38.21 170.42 38.72 166.02 38.72C161.62 38.72 158.05 38.38 154.73 37.69C151.4 37.01 149.5 36.13 149.01 35.05C153.31 33.19 157.88 31.26 162.72 29.26C167.56 27.26 171.4 26.25 174.23 26.25C177.75 26.25 180.19 27.62 181.56 30.36ZM165.28 67.61C161.95 68.49 159.22 69.81 157.07 71.57C154.92 73.33 153.84 75.38 153.84 77.73C153.84 80.47 155.31 83.3 158.24 86.24L165.28 67.62V67.61ZM181.56 121.14C190.26 114.59 196.86 102.42 201.36 84.62C205.86 66.83 209.38 42.53 211.92 11.73C212.41 11.14 213.09 10.85 213.97 10.85C215.05 10.85 216 11.31 216.83 12.24C217.66 13.17 218.08 14.61 218.08 16.57C218.08 17.35 218.01 18.21 217.86 19.14C217.71 20.07 217.25 21.46 216.47 23.32C214.12 45.61 212.05 62.65 210.24 74.43C208.43 86.21 205.37 96.94 201.07 106.62C196.77 116.3 190.85 121.14 183.32 121.14H181.56ZM193.29 44.29C193.29 46.25 193.46 49.06 193.8 52.72C194.14 56.39 194.31 58.66 194.31 59.54C194.31 62.18 193.89 64.19 193.06 65.55C192.23 66.92 190.74 67.6 188.59 67.6C185.36 67.6 183.75 65.25 183.75 60.56C183.75 57.73 184.58 54.65 186.24 51.32C186.63 52.01 187.07 52.35 187.56 52.35C188.15 52.35 189.07 51.01 190.35 48.32C191.62 45.63 192.6 44.29 193.28 44.29H193.29ZM218.81 44.29C219.98 41.94 223.53 38.94 229.44 35.27C235.35 31.6 240.51 29.77 244.91 29.77C247.84 29.77 249.99 30.75 251.36 32.7C252.73 34.07 253.41 35.05 253.41 35.63C253.41 36.61 252.21 37.81 249.82 39.22C247.42 40.64 243.29 42.32 237.43 44.28V58.21C240.85 56.45 243.69 55.57 245.94 55.57C249.26 55.57 250.93 57.53 250.93 61.44C250.93 65.35 249.58 69.7 246.9 75.08C244.21 80.46 241.06 84.96 237.44 88.57V95.46C238.32 95.27 239.35 95.12 240.52 95.02C241.69 94.92 242.72 94.87 243.6 94.87C249.07 94.87 253.67 96.22 257.39 98.9C261.1 101.59 262.96 104.35 262.96 107.19C262.96 108.66 262.4 109.81 261.27 110.64C260.15 111.47 258.36 111.89 255.92 111.89C254.94 111.89 253.74 111.7 252.33 111.3C250.91 110.91 248.88 110.57 246.24 110.27C243.6 109.98 241.01 109.83 238.47 109.83C233.68 109.83 228.06 110.42 221.6 111.59C215.15 112.76 210.36 113.6 207.23 114.08C206.15 112.03 205.62 110.12 205.62 108.36C205.62 105.23 207.82 102.54 212.22 100.29C216.62 98.04 218.82 96.43 218.82 95.45C215.98 91.83 213.95 89.05 212.73 87.09C211.51 85.14 210.9 83.18 210.9 81.22C210.9 78.39 212.59 75.28 215.96 71.91C219.33 68.54 224.93 64.75 232.75 60.54V46.61C232.07 45.93 230.77 45.56 228.86 45.51C226.95 45.46 225.61 45.44 224.83 45.44C222.87 45.44 221.38 45.37 220.36 45.22C219.33 45.07 218.82 44.76 218.82 44.27L218.81 44.29ZM232.74 67.61C229.02 69.37 225.24 71.4 221.37 73.7C217.51 76 215.09 78.61 214.11 81.55C215.48 84.19 217.36 86.41 219.76 88.22C222.15 90.03 224.97 90.93 228.19 90.93C229.26 88.88 230.29 85.31 231.27 80.22C232.25 75.14 232.74 70.93 232.74 67.61ZM237.43 65.26V72.3C238.11 72.3 238.9 71.62 239.78 70.25C240.66 68.88 241.1 67.66 241.1 66.58C241.1 65.41 240.46 64.82 239.19 64.82C238.8 64.82 238.21 64.97 237.43 65.26Z" fill="#332D2D"/>
<path d="M286.27 109.55C286.76 109.45 287.49 109.4 288.47 109.4C291.99 109.4 294.92 110.89 297.27 113.87C299.62 116.85 300.79 119.96 300.79 123.18C300.79 125.82 299.86 127.43 298 128.02C295.07 129 292.72 127.17 290.96 122.52C289.2 117.88 287.64 113.55 286.27 109.54V109.55ZM293.3 67.61C292.42 66.44 291.98 65.17 291.98 63.8C291.98 61.36 296.06 54.98 304.23 44.66C312.39 34.35 318.09 25.67 321.31 18.63C324.05 20.98 326.03 23.25 327.25 25.45C328.47 27.65 329.08 29.73 329.08 31.68C329.08 34.61 326.88 38.52 322.48 43.41C318.08 48.3 316.12 51.72 316.61 53.68C318.96 52.51 321.3 51.92 323.65 51.92C326 51.92 328.2 52.51 330.54 53.68C331.52 54.66 332.01 55.69 332.01 56.76C332.01 58.72 329.17 62.43 323.5 67.91C317.83 73.39 314.75 77.15 314.26 79.2C316.61 78.03 319.64 77.44 323.35 77.44C327.06 77.44 329.36 78.03 330.54 79.2C330.54 81.74 328.75 84.06 325.19 86.17C321.62 88.27 317.2 90.59 311.92 93.14C314.17 88.64 315.1 86.3 314.71 86.1C314.51 86.2 314.37 86.25 314.27 86.25C313.1 86.25 311.14 86.91 308.4 88.23C305.66 89.55 303.8 90.21 302.83 90.21C301.75 90.21 300.85 89.6 300.12 88.38C299.39 87.16 299.02 85.91 299.02 84.64C299.02 82.39 300.22 79.7 302.61 76.57C305 73.44 307.33 70.46 309.58 67.62C308.02 67.62 305.96 68.13 303.42 69.16C300.88 70.19 299.12 70.7 298.14 70.7C297.45 70.7 296.72 70.55 295.94 70.26C295.16 69.97 294.28 69.09 293.3 67.62V67.61ZM332.9 88.58C332.7 89.17 332.29 92.2 331.65 97.67C331.01 103.15 330.01 105.88 328.64 105.88C327.86 105.88 326.44 105.2 324.39 103.83C322.34 102.46 320.72 101.78 319.55 101.78C317.59 101.78 316.62 104.37 316.62 109.55C316.13 110.63 315.32 111.58 314.2 112.41C313.08 113.24 311.97 113.66 310.9 113.66C309.14 113.66 307.7 112.61 306.57 110.51C305.45 108.41 304.88 104.96 304.88 100.17C307.13 103.01 309.03 104.42 310.6 104.42C311.28 104.42 312.8 103.3 315.15 101.05C317.5 98.8 320.14 97.68 323.07 97.68C324.24 97.68 325.17 97.73 325.86 97.83C327.52 97.83 328.77 96.63 329.6 94.24C330.43 91.85 331.53 89.96 332.9 88.59V88.58ZM356.22 81.54C361.4 81.54 367.02 80.22 373.09 77.58C379.15 74.94 383.21 73.62 385.26 73.62C386.53 73.62 387.75 73.79 388.93 74.13C390.1 74.47 391.62 75.38 393.48 76.84C395.63 78.99 396.71 80.9 396.71 82.56C396.71 85.1 395.05 86.69 391.72 87.33C388.39 87.97 385.07 88.38 381.75 88.58C383.51 90.34 384.39 92.49 384.39 95.03C384.39 97.57 383.85 99.85 382.78 101.85C381.7 103.86 380.58 105.64 379.41 107.2C382.93 106.91 386.16 106.76 389.09 106.76C397.4 106.76 403.31 107.88 406.83 110.13C410.35 112.38 412.11 115.26 412.11 118.78C412.11 119.56 411.42 120.1 410.06 120.39C408.69 120.68 406.78 120.83 404.34 120.83C401.31 120.83 397.35 120.61 392.46 120.17C387.57 119.73 382.49 119.27 377.21 118.78C373.4 118.78 367.68 119.29 360.05 120.32C352.43 121.35 347.34 121.86 344.8 121.86C342.26 121.86 340.23 121.64 338.71 121.2C337.19 120.76 336.05 119.95 335.26 118.78C342.59 117.12 350 115.38 357.48 113.57C364.96 111.76 369.43 110.15 370.9 108.73C372.37 107.31 373.44 105.38 374.13 102.94C374.81 100.5 375.16 97.95 375.16 95.31C375.16 94.24 375.13 93.36 375.09 92.67C375.04 91.99 374.97 91.4 374.87 90.91C374.58 90.91 374.18 90.93 373.7 90.98C373.21 91.03 372.62 91.05 371.94 91.05C368.32 91.05 365 90.42 361.97 89.14C358.94 87.87 357.03 85.33 356.25 81.51L356.22 81.54ZM360.76 37.25C361.25 37.94 362.03 39.18 363.11 40.99C364.19 42.8 364.72 44.88 364.72 47.22C364.72 48.88 364.16 50.28 363.03 51.4C361.9 52.52 361.34 53.97 361.34 55.73C361.34 57.39 362.32 60.11 364.27 63.87C366.23 67.64 367.2 69.71 367.2 70.1C367.2 71.18 366.61 71.91 365.44 72.3C363.48 73.18 360.89 71.49 357.67 67.24C354.45 62.99 351.61 59.2 349.16 55.87C349.16 53.23 351.02 49.61 354.73 45.02C358.44 40.43 360.45 37.83 360.74 37.25H360.76ZM398.01 20.97C398.89 22.14 399.33 23.17 399.33 24.05C399.33 25.71 397.91 26.81 395.08 27.35C392.24 27.89 388.24 28.16 383.05 28.16H373.44C371.53 28.16 369.65 28.11 367.79 28.01C366.62 28.4 365.3 28.6 363.83 28.6C361.29 28.6 358.99 27.99 356.94 26.77C354.89 25.55 353.86 24.4 353.86 23.32C357.77 23.32 363.39 21.98 370.73 19.29C378.06 16.6 383.24 15.26 386.27 15.26C388.62 15.26 390.72 15.68 392.58 16.51C394.44 17.34 396.25 18.83 398.01 20.98V20.97ZM374.84 37.25C376.21 38.33 377.53 39.65 378.8 41.21C380.07 42.77 380.71 44.73 380.71 47.08C380.71 48.64 380.27 50.06 379.39 51.33C378.02 52.7 377.34 54.07 377.34 55.44C377.34 56.81 378.24 58.59 380.05 60.79C381.86 62.99 382.76 64.53 382.76 65.41C382.76 66.19 382.42 66.93 381.73 67.61C380.85 68.2 379.97 68.49 379.09 68.49C376.55 68.49 374.03 66.41 371.54 62.26C369.05 58.11 367.8 55.25 367.8 53.68C367.8 51.92 368.8 49.23 370.81 45.61C372.81 41.99 374.16 39.21 374.84 37.25ZM393.47 32.7C395.23 33.58 396.45 34.41 397.14 35.19C397.82 35.97 398.17 36.8 398.17 37.68C398.17 38.66 397.36 40.2 395.75 42.3C394.14 44.4 393.33 46.09 393.33 47.36C393.33 48.24 393.57 49.14 394.06 50.07C394.55 51 395.87 52.2 398.02 53.66C400.46 55.03 401.69 56.55 401.69 58.21C401.69 61.05 398.76 63.34 392.89 65.1C391.52 65.2 390.15 65.25 388.78 65.25C390.54 63.49 391.42 61.73 391.42 59.97C391.42 58.41 390.59 56.45 388.93 54.1C387.27 51.75 386.44 50.04 386.44 48.97C386.44 46.72 387.42 44.45 389.37 42.15C391.32 39.85 392.69 36.7 393.48 32.69L393.47 32.7Z" fill="#332D2D"/>
<path d="M447 121.14C444.56 120.75 442.8 118.92 441.72 115.64C440.64 112.37 440.11 108.19 440.11 103.1C440.11 95.77 440.92 87.26 442.53 77.58C444.14 67.9 445.63 59.15 447 51.33C448.86 53.87 450.2 56.29 451.03 58.59C451.86 60.89 452.28 63.01 452.28 64.97C452.28 65.26 451.74 68.56 450.67 74.87C449.59 81.18 449.06 86.48 449.06 90.78L449.35 97.82C454.73 87.75 460.15 77.68 465.63 67.61C465.14 69.27 463.82 75.33 461.67 85.8C459.52 96.26 457.44 104.23 455.44 109.7C453.44 115.18 450.62 118.99 447.01 121.14H447ZM460.93 32.7C460.93 29.87 460.29 26.69 459.02 23.17C457.75 19.65 456.04 17.4 453.89 16.42C454.97 16.13 455.99 15.98 456.97 15.98C459.61 15.98 462.2 17.01 464.74 19.06C467.28 21.11 469.09 23.31 470.17 25.66C470.46 26.74 470.61 27.62 470.61 28.3C470.61 30.45 469.09 31.62 466.06 31.82C463.03 32.02 461.32 32.31 460.93 32.7ZM484.25 48.98C486.69 48.98 489.77 48.15 493.49 46.49C497.2 44.83 499.65 44 500.82 44C502.58 44 504 44.83 505.07 46.49C506.14 48.15 506.68 49.91 506.68 51.77C506.68 54.51 505.78 57.2 503.97 59.84C502.16 62.48 500.23 64.29 498.18 65.27C497.5 64.59 497.15 63.36 497.15 61.6C497.15 59.74 497.47 57.64 498.1 55.29C498.73 52.94 499.54 50.84 500.52 48.98L495.83 51.33C495.83 53.68 493.43 58.54 488.64 65.92C483.85 73.3 479.06 76.99 474.27 76.99C473.49 76.99 472.9 76.94 472.51 76.84C472.51 75.08 474.22 72.32 477.64 68.55C481.06 64.79 483.26 62.12 484.24 60.56C486.39 58.31 487.98 56.41 489.01 54.84C490.04 53.28 490.74 52.1 491.14 51.32C489.28 51.32 487.84 51.08 486.81 50.59C485.78 50.1 484.93 49.56 484.24 48.98H484.25ZM544.67 23.32C544.67 24.49 543.74 25.52 541.88 26.4C540.02 27.28 537.87 27.72 535.43 27.72C536.8 29.09 537.48 30.51 537.48 31.97C537.48 33.24 536.97 34.44 535.94 35.56C534.91 36.68 533.96 37.25 533.08 37.25C533.08 38.23 533.59 39.35 534.62 40.62C535.65 41.89 536.7 43.11 537.77 44.29L540.12 41.94V47.81C541.29 48.98 542.44 49.99 543.57 50.82C544.69 51.65 547.5 53.53 552 56.47C556.5 59.4 559.21 61.33 560.14 62.26C561.07 63.19 562.12 64.97 563.29 67.61C559.48 67.61 555.49 66.85 551.34 65.34C547.18 63.83 543.44 61.45 540.12 58.23L535.43 53.68L533.08 55.88C534.64 57.05 536.21 58.42 537.77 59.99C539.33 61.55 540.12 63.32 540.12 65.27C540.61 68.69 541 73.21 541.29 78.83C541.58 84.45 541.73 90.2 541.73 96.06C541.73 104.96 541.41 112.34 540.78 118.2C540.14 124.07 539.14 127.34 537.77 128.03C535.81 126.08 534.49 123.04 533.81 118.94C533.13 114.83 532.78 109.9 532.78 104.13C532.78 101.98 532.8 99.61 532.85 97.02C532.9 94.43 532.97 91.62 533.07 88.59C533.07 86.05 533.46 81.89 534.24 76.12C535.02 70.35 535.41 66.73 535.41 65.27C533.85 63.71 532.67 62.41 531.89 61.38C531.11 60.35 530.72 59.3 530.72 58.23C530.33 58.92 529.81 59.58 529.18 60.21C528.55 60.84 527.59 61.16 526.32 61.16C525.44 61.16 524.61 60.97 523.83 60.57C522.46 60.57 521.78 59.5 521.78 57.34C521.78 56.07 522.12 53.82 522.81 50.59C523.49 47.36 523.84 45.26 523.84 44.28H521.49C521.49 42.72 523.42 39.95 527.28 35.99C531.14 32.03 533.07 29.27 533.07 27.7H528.67C526.52 30.05 524.56 32.08 522.8 33.79C521.04 35.5 519.04 37.43 516.79 39.58C517.38 41.34 517.91 43.25 518.4 45.3C518.89 47.35 519.13 49.36 519.13 51.31C519.13 54.34 518.35 56.64 516.78 58.2C515.22 59.76 513.65 60.55 512.09 60.55C511.5 60.55 511.06 59.94 510.77 58.72C510.48 57.5 510.33 55.86 510.33 53.81C510.33 49.41 510.92 45.45 512.09 41.93C510.52 41.93 509.23 41.81 508.2 41.56C507.17 41.32 506 40.51 504.68 39.14C503.36 37.77 502.33 36.5 501.6 35.33C500.87 34.16 500.5 32.5 500.5 30.34L488.77 32.69C487.79 32.59 486.79 32.42 485.76 32.18C484.73 31.94 484.22 31.33 484.22 30.35C488.13 28.4 492.9 26.64 498.52 25.07C504.14 23.51 509.45 22.14 514.43 20.96C514.43 17.83 513.52 15.07 511.72 12.67C509.91 10.28 507.74 8.38998 505.19 7.01998C506.75 4.57998 508.86 3.34998 511.5 3.34998C514.33 3.34998 516.9 4.81998 519.2 7.74998C521.5 10.68 523.04 15.08 523.82 20.95C525.48 20.36 527.41 19.8 529.61 19.26C531.81 18.72 534.03 18.45 536.28 18.45C538.53 18.45 540.26 18.82 541.78 19.55C543.29 20.28 544.25 21.53 544.64 23.29L544.67 23.32ZM495.83 69.95C503.55 71.51 507.41 75.87 507.41 83C507.41 86.03 506.68 89.4 505.21 93.12C510 89.99 514.86 86.69 519.8 83.22C524.74 79.75 529.16 76.84 533.07 74.49C529.26 79.67 525.3 85 521.19 90.48C517.08 95.96 514.32 99.04 512.9 99.72C511.48 100.41 510.33 100.75 509.45 100.75C508.08 100.75 507.1 100.38 506.52 99.65C505.93 98.92 505.49 98.31 505.2 97.82C502.85 103.3 500.85 107.77 499.19 111.24C497.53 114.71 494.84 116.45 491.12 116.45C490.92 115.47 490.83 114.69 490.83 114.1C490.83 112.73 492.12 107.72 494.72 99.07C497.31 90.42 498.61 84.24 498.61 80.52C498.61 76.32 497.68 72.8 495.82 69.96L495.83 69.95ZM521.5 28.01L505.22 30.36C505.41 31.53 506 32.73 506.98 33.95C507.96 35.17 510.45 36.27 514.46 37.25C516.81 35 518.47 33.1 519.45 31.53C520.43 29.97 521.11 28.79 521.5 28.01ZM507.42 69.95C512.11 68.39 515.73 67.24 518.27 66.5C520.81 65.77 522.91 65.4 524.58 65.4C527.71 65.4 529.76 66.92 530.74 69.95C530.74 71.03 529.93 72.25 528.32 73.62C526.71 74.99 524.53 75.67 521.79 75.67C519.74 75.67 517.58 75.26 515.34 74.42C513.09 73.59 510.45 72.1 507.42 69.95ZM528.39 41.94V51.33C529.46 51.23 530.52 51.06 531.54 50.82C532.57 50.58 533.08 49.97 533.08 48.99C532 47.82 530.95 46.6 529.93 45.32C528.9 44.05 528.39 42.93 528.39 41.95V41.94Z" fill="#332D2D"/>
<path d="M596 60.57C598.15 62.82 599.84 65.61 601.06 68.93C602.28 72.26 602.89 75.68 602.89 79.2C602.89 83.11 602.33 86.12 601.2 88.22C600.08 90.32 598.68 91.37 597.02 91.37C595.46 91.37 594.11 90.3 592.99 88.14C591.87 85.99 591.3 83.01 591.3 79.19C591.3 77.43 592.08 74.06 593.65 69.07C595.21 64.08 596 61.25 596 60.56V60.57ZM621.51 28.01C627.96 28.01 631.19 29.28 631.19 31.82C631.19 34.56 627.96 37.15 621.51 39.59V44.28C623.95 43.01 625.91 42.37 627.38 42.37C628.75 42.37 629.43 42.91 629.43 43.98C629.43 45.05 628.79 46.4 627.52 48.01C626.25 49.62 624.24 51.51 621.51 53.66V59.82C623.56 59.63 630.28 58.09 641.68 55.2C653.07 52.32 659.55 50.73 661.11 50.43L661.99 44.42C659.45 44.42 657.54 44.08 656.27 43.39C655 42.71 654.36 41.83 654.36 40.75C654.36 39.67 655.17 38.6 656.78 37.52C658.39 36.45 660.61 35.61 663.45 35.03L664.48 27.99C658.12 27.99 654.95 26.87 654.95 24.62C654.95 22.18 658.57 20.95 665.8 20.95V16.4C665.8 16.01 664.23 15.03 661.11 13.47C657.98 11.91 656.42 9.76 656.42 7.02C659.25 6.73 661.75 6.58 663.9 6.58C669.57 6.58 673.58 7.63 675.93 9.73C678.28 11.83 679.45 14.79 679.45 18.6C679.45 22.41 677.98 28.13 675.05 35.76C672.12 43.39 670.5 47.84 670.21 49.11C670.7 49.01 671.82 48.96 673.58 48.96C680.91 48.96 686.49 50.06 690.3 52.26C694.11 54.46 696.02 57.22 696.02 60.55C696.02 64.36 692.16 67 684.43 68.47C676.71 69.94 669.71 71.21 663.46 72.28C664.83 70.91 667.49 68.81 671.45 65.97C675.41 63.14 677.39 61.33 677.39 60.54C669.86 60.54 663.29 60.98 657.67 61.86C652.05 62.74 644.47 64.06 634.94 65.82C625.41 67.58 618.93 68.46 615.51 68.46C610.82 68.46 607.39 67.39 605.24 65.23C606.41 64.06 607.98 62.98 609.93 62C611.89 61.02 613.45 60.53 614.62 60.53C614.62 51.44 614.13 44.64 613.15 40.15C612.07 37.71 611 35.21 609.92 32.67C609.92 31.5 611.07 28.93 613.37 24.97C615.67 21.01 616.82 15.02 616.82 7.01C619.95 8.09 622.15 9.43 623.42 11.04C624.69 12.65 625.33 14.54 625.33 16.69C625.33 18.84 624.77 21.24 623.64 23.58C622.51 25.93 621.81 27.39 621.51 27.98V28.01ZM626.21 72.3C631 70.64 635.79 68.98 640.58 67.31C644.88 66.04 648.25 65.4 650.7 65.4C653.15 65.4 655.22 65.94 656.64 67.01C658.06 68.09 658.77 69.85 658.77 72.29C658.48 73.07 657.72 74.2 656.5 75.66C655.28 77.13 652.17 79.86 647.19 83.87L650.86 88.42C652.52 87.93 654.01 87.57 655.33 87.32C656.65 87.08 657.8 86.95 658.78 86.95C660.05 87.05 661.32 87.1 662.59 87.1C665.23 87.1 668.6 88.05 672.71 89.96C676.82 91.87 678.58 93.75 677.99 95.61C677.4 97.37 676.18 98.25 674.32 98.25C674.12 98.25 672.22 97.98 668.6 97.44C664.98 96.9 662.34 96.63 660.68 96.63H658.19C657.31 96.63 655.94 96.83 654.08 97.22C654.08 105.53 653.35 112.86 651.88 119.22C650.41 125.58 648.07 129.29 644.84 130.37C644.06 130.76 643.23 130.96 642.35 130.96C640.49 130.96 638.61 129.93 636.7 127.88C634.79 125.83 632.86 122.8 630.91 118.79C636.87 118.79 640.71 117.67 642.42 115.42C644.13 113.17 644.99 107.5 644.99 98.41C643.82 98.22 642.89 98.12 642.2 98.12C639.95 98.12 635.62 99.05 629.22 100.91C622.82 102.77 618.54 103.7 616.39 103.7C612.77 103.7 609.84 102.58 607.59 100.33C610.62 100.33 615.48 99.3 622.18 97.25C628.88 95.2 635.4 93.05 641.76 90.8C641.27 89.14 640.49 87.72 639.41 86.55C638.33 85.38 637.8 84.5 637.8 83.91C638.39 82.74 638.92 81.52 639.41 80.24C639.9 78.97 640.14 77.85 640.14 76.87C638.38 77.46 636.77 77.97 635.3 78.41C633.83 78.85 632.56 79.07 631.49 79.07C629.83 79.07 628.53 78.56 627.6 77.53C626.67 76.5 626.21 74.77 626.21 72.32V72.3ZM635.74 41.94C634.66 41.35 633.59 40.67 632.51 39.89C631.43 39.11 630.9 38.23 630.9 37.25C631.78 36.76 633.1 36.4 634.86 36.15C636.62 35.91 637.89 35.69 638.67 35.49C639.26 34.42 639.89 32.9 640.58 30.94C641.26 28.99 641.9 27.23 642.49 25.66C643.86 25.37 645.03 25.22 646.01 25.22C647.87 25.22 649.31 25.68 650.34 26.61C651.37 27.54 651.88 28.79 651.88 30.35C651.88 33.38 650.31 36.46 647.19 39.59C648.46 40.47 649.56 41.45 650.49 42.52C651.42 43.6 651.88 44.67 651.88 45.75C651.88 47.61 650.56 48.54 647.92 48.54C646.16 48.54 644.35 47.91 642.49 46.63C641.41 48.78 639.61 50.91 637.06 53.01C634.52 55.11 631.98 56.16 629.43 56.16C627.38 56.16 625.52 55.33 623.86 53.67C626.99 52.6 629.31 51.15 630.83 49.34C632.34 47.53 633.98 45.06 635.74 41.93V41.94ZM642.48 20.97C640.52 22.93 638.27 24.15 635.73 24.64C633.19 25.13 630.79 25.47 628.54 25.67C629.81 24.4 630.93 23.18 631.91 22C632.89 20.83 634.11 19.12 635.58 16.87C634.6 15.8 633.97 14.94 633.67 14.3C633.38 13.67 633.23 12.81 633.23 11.73C633.72 11.54 634.6 11.44 635.87 11.44H637.63C638.12 11.44 638.56 11.49 638.95 11.59C639.73 9.93 640.51 8.1 641.3 6.09C642.08 4.09 642.47 2.06 642.47 0C645.99 0 648.51 0.78 650.02 2.35C651.53 3.91 652.29 5.92 652.29 8.36C652.29 10.02 651.95 11.56 651.26 12.98C650.57 14.4 649.79 15.25 648.91 15.55C650.47 17.11 651.26 18.53 651.26 19.8C651.26 21.85 650.09 22.88 647.74 22.88C646.17 22.88 644.41 22.25 642.46 20.97H642.48Z" fill="#332D2D"/>
</g>
<defs>
<clipPath id="clip0_205_526">
<rect width="696.01" height="130.96" fill="white"/>
</clipPath>
</defs>
</svg>
