<svg width="122" height="22" viewBox="0 0 122 22" fill="none" xmlns="http://www.w3.org/2000/svg">
<g clip-path="url(#clip0_126_269)">
<path d="M14.2927 1.57743C14.4645 1.57743 14.8537 1.53207 15.4619 1.44136C16.0701 1.35064 16.4768 1.30528 16.6836 1.30528C17.078 1.30528 17.4338 1.35064 17.7511 1.44136C18.0684 1.53207 18.4067 1.70846 18.766 1.97052C18.9886 2.16707 19.1516 2.3737 19.2551 2.58705C19.3585 2.8004 19.4093 3.00534 19.4093 3.20357C19.4093 3.49924 19.3024 3.75794 19.0885 3.97969C18.8747 4.20143 18.6293 4.31231 18.3558 4.31231C18.0123 4.36103 17.6968 4.38622 17.404 4.38622C16.8554 4.38622 16.007 4.27199 14.8589 4.04184C13.7108 3.8117 12.7502 3.69746 11.979 3.69746C11.2586 3.69746 10.3944 3.77138 9.38301 3.91921C9.38301 4.24847 9.60913 4.54749 10.0649 4.81796C10.5189 5.08842 10.8835 5.35553 11.1569 5.61927C11.4303 5.88134 11.5688 6.16188 11.5688 6.45754C11.5688 6.58858 11.4794 6.86072 11.2989 7.27062C11.1183 7.68051 11.0289 8.00137 11.0289 8.23152C12.3313 8.37935 13.2358 8.49022 13.7406 8.56414C14.2454 8.63806 14.7432 8.85644 15.2323 9.21762C15.7213 9.5788 16.0456 9.89462 16.2086 10.1668C16.3716 10.4372 16.4523 10.6808 16.4523 10.8942C16.4523 11.2066 16.3331 11.4603 16.0929 11.6585C15.8528 11.8551 15.5443 11.9542 15.1674 11.9542C14.9781 11.9542 14.8326 11.9458 14.731 11.929C14.6275 11.9122 14.482 11.8551 14.2945 11.756C13.7967 11.6417 13.241 11.378 12.624 10.9681C12.007 10.5582 11.4759 10.2944 11.0307 10.1802V15.65C11.0307 15.8465 11.0395 16.2211 11.057 16.7705C11.0745 17.3215 11.0833 17.6692 11.0833 17.817C11.0833 19.1139 10.9974 20.1538 10.8256 20.9333C10.6538 21.7127 10.312 22.0386 9.79669 21.9059C9.16216 21.7581 8.67837 21.4087 8.34358 20.8593C8.00878 20.31 7.81597 20.0093 7.76514 19.9606C7.98775 19.8128 8.17705 19.4029 8.33131 18.7292C8.48556 18.0556 8.56268 16.9065 8.56268 15.2804V5.5L8.17706 4.71212V3.92425C7.61089 3.92425 6.76251 4.06872 5.63192 4.35599C4.50133 4.64325 3.73008 4.88179 3.31816 5.06994C2.90624 5.25809 2.55041 5.38577 2.25067 5.45128C1.95094 5.5168 1.68976 5.5504 1.46715 5.5504C0.936038 5.5504 0.559176 5.4076 0.336564 5.11866C0.113952 4.8314 0.00177002 4.56429 0.00177002 4.31735C0.345328 4.36607 0.678369 4.39126 1.0044 4.39126C1.89485 4.39126 3.06925 4.17456 4.52587 3.73778C5.98249 3.30269 7.4654 2.84743 8.97285 2.37034C9.36724 2.19059 10.1771 2.01252 11.4023 1.84117C12.6275 1.66814 13.5916 1.58247 14.2945 1.58247L14.2927 1.57743Z" fill="white"/>
<path d="M29.3812 9.38561V7.04551C30.2033 7.04551 30.6153 7.82498 30.6153 9.38561C31.0272 9.50153 31.2323 9.76359 31.2323 10.1735C31.2323 10.3549 31.0605 11.0067 30.7187 12.1323C30.3751 13.2578 30.2051 14.0423 30.2051 14.4858C30.5311 14.1582 30.8309 13.7382 31.1043 13.2292C31.3777 12.7202 31.6179 12.228 31.8247 11.7509C31.8422 11.85 31.851 11.9979 31.851 12.1944C31.851 13.5081 31.2726 15.1057 30.1157 16.9855C28.9588 18.867 27.9597 19.806 27.1218 19.806C26.8992 19.806 26.6503 19.675 26.3769 19.4113C26.1017 19.1492 25.9649 18.8619 25.9649 18.5495C25.9649 18.3193 26.1963 17.9178 26.6591 17.3416C27.1218 16.7671 27.3532 16.201 27.3532 15.6416C27.199 14.9511 26.8852 14.4136 26.4154 14.0272C25.9439 13.6408 25.709 13.2679 25.709 12.9067C25.709 12.48 26.128 11.8316 26.9693 10.9597C27.8089 10.0895 28.6153 9.56368 29.3865 9.38225L29.3812 9.38561ZM31.8247 5.10018C31.8756 5.23122 31.9018 5.34713 31.9018 5.44456C31.9018 5.80574 31.6266 6.07285 31.0798 6.24588C30.5311 6.41891 29.872 6.50458 29.1008 6.50458C28.3295 6.50458 27.7038 6.44746 27.1218 6.33155C26.5381 6.21732 26.2051 6.06949 26.1192 5.88806C26.8729 5.57559 27.674 5.25137 28.5224 4.91539C29.3707 4.57941 30.0438 4.40974 30.5399 4.40974C31.1569 4.40974 31.5846 4.63989 31.8247 5.10018ZM28.9711 11.3578C28.3874 11.5056 27.9089 11.7274 27.532 12.0231C27.1551 12.3187 26.9658 12.6631 26.9658 13.0579C26.9658 13.5182 27.2235 13.9936 27.7371 14.4875L28.9711 11.3595V11.3578ZM31.8247 20.3503C33.3497 19.25 34.5066 17.2056 35.2954 14.2153C36.0841 11.2268 36.7011 7.14462 37.1464 1.97053C37.2323 1.87141 37.3514 1.82269 37.5057 1.82269C37.695 1.82269 37.8615 1.89997 38.007 2.0562C38.1525 2.21243 38.2261 2.45434 38.2261 2.7836C38.2261 2.91463 38.2139 3.0591 38.1876 3.21533C38.1613 3.37156 38.0806 3.60507 37.9439 3.91753C37.532 7.66203 37.1692 10.5246 36.8519 12.5035C36.5346 14.4824 35.9983 16.285 35.2445 17.9111C34.4908 19.5373 33.4531 20.3503 32.1332 20.3503H31.8247ZM33.8808 7.44029C33.8808 7.76955 33.9106 8.2416 33.9702 8.85644C34.0298 9.47297 34.0596 9.85431 34.0596 10.0021C34.0596 10.4456 33.986 10.7833 33.8405 11.0118C33.695 11.2419 33.4338 11.3561 33.057 11.3561C32.4908 11.3561 32.2086 10.9614 32.2086 10.1735C32.2086 9.69807 32.3541 9.18067 32.6451 8.62126C32.7134 8.73717 32.7905 8.79429 32.8764 8.79429C32.9798 8.79429 33.1411 8.56918 33.3655 8.11729C33.5881 7.66539 33.7599 7.44029 33.8791 7.44029H33.8808ZM38.3541 7.44029C38.5592 7.04551 39.1814 6.54154 40.2174 5.92501C41.2533 5.30849 42.1578 5.00107 42.929 5.00107C43.4426 5.00107 43.8195 5.1657 44.0596 5.49328C44.2997 5.72343 44.4189 5.88806 44.4189 5.98549C44.4189 6.15012 44.2086 6.35171 43.7897 6.58858C43.369 6.82712 42.6451 7.10935 41.6179 7.43861V9.77871C42.2174 9.48305 42.7152 9.33522 43.1096 9.33522C43.6915 9.33522 43.9842 9.66448 43.9842 10.3213C43.9842 10.9782 43.7476 11.7089 43.2778 12.6127C42.8063 13.5165 42.2542 14.2724 41.6196 14.8789V16.0363C41.7739 16.0044 41.9544 15.9792 42.1595 15.9624C42.3646 15.9456 42.5451 15.9372 42.6994 15.9372C43.6582 15.9372 44.4645 16.164 45.1166 16.6142C45.7669 17.0661 46.0929 17.5298 46.0929 18.0069C46.0929 18.2538 45.9947 18.447 45.7967 18.5864C45.6004 18.7259 45.2866 18.7964 44.8589 18.7964C44.6871 18.7964 44.4768 18.7645 44.2296 18.6973C43.9807 18.6318 43.6249 18.5747 43.1621 18.5243C42.6994 18.4756 42.2454 18.4504 41.8002 18.4504C40.9606 18.4504 39.9755 18.5495 38.8431 18.746C37.7125 18.9426 36.8729 19.0837 36.3243 19.1643C36.135 18.8199 36.0421 18.4991 36.0421 18.2034C36.0421 17.6776 36.4277 17.2257 37.199 16.8477C37.9702 16.4698 38.3558 16.1993 38.3558 16.0347C37.858 15.4265 37.5022 14.9595 37.2883 14.6303C37.0745 14.3027 36.9676 13.9734 36.9676 13.6442C36.9676 13.1688 37.2638 12.6463 37.8545 12.0802C38.4452 11.514 39.4268 10.8774 40.7976 10.1701V7.83002C40.6784 7.71579 40.4505 7.65363 40.1157 7.64523C39.7809 7.63683 39.546 7.63347 39.4093 7.63347C39.0657 7.63347 38.8046 7.62172 38.6258 7.59652C38.4452 7.57132 38.3558 7.51924 38.3558 7.43693L38.3541 7.44029ZM40.7958 11.3578C40.1437 11.6535 39.4812 11.9945 38.8028 12.3809C38.1262 12.7673 37.702 13.2057 37.5302 13.6996C37.7704 14.1431 38.0999 14.516 38.5206 14.8201C38.9395 15.1242 39.4338 15.2753 39.9983 15.2753C40.1858 14.931 40.3664 14.3312 40.5381 13.4762C40.7099 12.6228 40.7958 11.9155 40.7958 11.3578ZM41.6179 10.963V12.1457C41.7371 12.1457 41.8756 12.0315 42.0298 11.8013C42.1841 11.5712 42.2612 11.3662 42.2612 11.1848C42.2612 10.9882 42.149 10.8891 41.9264 10.8891C41.858 10.8891 41.7546 10.9143 41.6179 10.963Z" fill="white"/>
<path d="M50.1788 18.4033C50.2647 18.3865 50.3926 18.3781 50.5644 18.3781C51.1814 18.3781 51.695 18.6284 52.1069 19.129C52.5188 19.6297 52.7239 20.1521 52.7239 20.693C52.7239 21.1365 52.5609 21.407 52.2349 21.5061C51.7213 21.6707 51.3094 21.3633 51.0009 20.5822C50.6924 19.8027 50.4189 19.0753 50.1788 18.4016V18.4033ZM51.411 11.3578C51.2568 11.1613 51.1797 10.9479 51.1797 10.7178C51.1797 10.3079 51.8948 9.2361 53.3269 7.50244C54.7572 5.77046 55.7564 4.31231 56.3208 3.12966C56.801 3.52443 57.1481 3.90577 57.362 4.27535C57.5758 4.64493 57.6827 4.99435 57.6827 5.32193C57.6827 5.81414 57.2971 6.47098 56.5259 7.29246C55.7546 8.11393 55.411 8.68845 55.4969 9.01771C55.9088 8.82117 56.319 8.72205 56.7309 8.72205C57.1429 8.72205 57.5285 8.82117 57.9387 9.01771C58.1104 9.18235 58.1963 9.35538 58.1963 9.53513C58.1963 9.86439 57.6985 10.4876 56.7046 11.4082C55.7108 12.3288 55.1709 12.9604 55.085 13.3048C55.4969 13.1083 56.028 13.0092 56.6784 13.0092C57.3287 13.0092 57.7318 13.1083 57.9387 13.3048C57.9387 13.7315 57.6249 14.1213 57.0009 14.4757C56.3751 14.8285 55.6004 15.2182 54.6748 15.6466C55.0692 14.8907 55.2322 14.4976 55.1639 14.464C55.1288 14.4808 55.1043 14.4892 55.0868 14.4892C54.8817 14.4892 54.5381 14.6 54.0578 14.8218C53.5776 15.0435 53.2515 15.1544 53.0815 15.1544C52.8922 15.1544 52.7344 15.0519 52.6065 14.847C52.4785 14.642 52.4137 14.432 52.4137 14.2187C52.4137 13.8407 52.624 13.3888 53.0429 12.863C53.4619 12.3372 53.8703 11.8366 54.2647 11.3595C53.9912 11.3595 53.6301 11.4452 53.1849 11.6182C52.7397 11.7912 52.4312 11.8769 52.2594 11.8769C52.1385 11.8769 52.0105 11.8517 51.8738 11.803C51.7371 11.7543 51.5828 11.6064 51.411 11.3595V11.3578ZM58.3523 14.8806C58.3173 14.9797 58.2454 15.4887 58.1332 16.4076C58.021 17.3282 57.8458 17.7868 57.6056 17.7868C57.4689 17.7868 57.22 17.6726 56.8606 17.4424C56.5013 17.2123 56.2173 17.098 56.0123 17.098C55.6687 17.098 55.4987 17.5331 55.4987 18.4033C55.4128 18.5848 55.2708 18.7443 55.0745 18.8838C54.8782 19.0232 54.6836 19.0938 54.4961 19.0938C54.1876 19.0938 53.9351 18.9174 53.7371 18.5646C53.5408 18.2118 53.4408 17.6323 53.4408 16.8276C53.8352 17.3047 54.1683 17.5415 54.4435 17.5415C54.5627 17.5415 54.8291 17.3534 55.241 16.9754C55.6529 16.5974 56.1157 16.4093 56.6293 16.4093C56.8344 16.4093 56.9974 16.4177 57.1183 16.4345C57.4093 16.4345 57.6284 16.2329 57.7739 15.8314C57.9194 15.4299 58.1122 15.1124 58.3523 14.8823V14.8806ZM62.44 13.6979C63.3479 13.6979 64.333 13.4762 65.397 13.0327C66.4592 12.5892 67.1709 12.3674 67.5302 12.3674C67.7528 12.3674 67.9667 12.396 68.1735 12.4531C68.3786 12.5102 68.645 12.6631 68.9711 12.9084C69.3479 13.2695 69.5372 13.5904 69.5372 13.8693C69.5372 14.296 69.2463 14.5631 68.6626 14.6706C68.0789 14.7781 67.4969 14.847 66.915 14.8806C67.2235 15.1762 67.3777 15.5374 67.3777 15.9641C67.3777 16.3908 67.2831 16.7738 67.0955 17.1098C66.9062 17.4475 66.7099 17.7465 66.5048 18.0086C67.1218 17.9598 67.688 17.9346 68.2016 17.9346C69.6582 17.9346 70.6941 18.1228 71.3111 18.5008C71.9281 18.8787 72.2366 19.3626 72.2366 19.9539C72.2366 20.0849 72.1157 20.1756 71.8773 20.2243C71.6372 20.2731 71.3024 20.2983 70.8747 20.2983C70.3436 20.2983 69.6494 20.2613 68.7923 20.1874C67.9351 20.1135 67.0447 20.0362 66.1192 19.9539C65.4514 19.9539 64.4487 20.0396 63.1113 20.2126C61.7756 20.3856 60.8834 20.4713 60.4382 20.4713C59.993 20.4713 59.6372 20.4343 59.3707 20.3604C59.1043 20.2865 58.9045 20.1504 58.766 19.9539C60.0508 19.675 61.3497 19.3827 62.6608 19.0786C63.972 18.7746 64.7555 18.5041 65.0131 18.2656C65.2708 18.027 65.4584 17.7028 65.5793 17.2929C65.6985 16.883 65.7599 16.4546 65.7599 16.0111C65.7599 15.8314 65.7546 15.6836 65.7476 15.5677C65.7388 15.4534 65.7266 15.3543 65.709 15.272C65.6582 15.272 65.5881 15.2754 65.5039 15.2838C65.4181 15.2922 65.3146 15.2955 65.1954 15.2955C64.5609 15.2955 63.979 15.1897 63.4479 14.9746C62.9167 14.7613 62.5819 14.3346 62.4452 13.6929L62.44 13.6979ZM63.2358 6.25764C63.3216 6.37355 63.4584 6.58186 63.6477 6.88592C63.837 7.18998 63.9299 7.5394 63.9299 7.9325C63.9299 8.21136 63.8317 8.44655 63.6337 8.6347C63.4356 8.82285 63.3374 9.06643 63.3374 9.3621C63.3374 9.64096 63.5092 10.0979 63.851 10.7295C64.1946 11.3629 64.3646 11.7106 64.3646 11.7761C64.3646 11.9575 64.2612 12.0802 64.0561 12.1457C63.7125 12.2935 63.2585 12.0096 62.6941 11.2957C62.1297 10.5817 61.6319 9.94502 61.2025 9.38561C61.2025 8.94212 61.5285 8.334 62.1788 7.56292C62.8291 6.79184 63.1814 6.35507 63.2322 6.25764H63.2358ZM69.7651 3.52275C69.9194 3.7193 69.9965 3.89233 69.9965 4.04016C69.9965 4.31903 69.7476 4.50382 69.2515 4.59453C68.7537 4.68525 68.0526 4.7306 67.1429 4.7306H65.4584C65.1236 4.7306 64.794 4.72221 64.468 4.70541C64.2629 4.77092 64.0315 4.80452 63.7739 4.80452C63.3287 4.80452 62.9255 4.70205 62.5662 4.4971C62.2068 4.29215 62.0263 4.09896 62.0263 3.91753C62.7117 3.91753 63.6968 3.69243 64.9833 3.24053C66.2682 2.78864 67.1762 2.56353 67.7073 2.56353C68.1192 2.56353 68.4873 2.63409 68.8133 2.77352C69.1393 2.91295 69.4566 3.16326 69.7651 3.52443V3.52275ZM65.7038 6.25764C65.9439 6.43907 66.1753 6.66081 66.3979 6.92288C66.6205 7.18494 66.7327 7.5142 66.7327 7.90898C66.7327 8.17104 66.6556 8.40959 66.5013 8.62294C66.2612 8.85309 66.142 9.08323 66.142 9.31338C66.142 9.54352 66.2997 9.84255 66.617 10.2121C66.9343 10.5817 67.092 10.8404 67.092 10.9882C67.092 11.1193 67.0324 11.2436 66.9115 11.3578C66.7572 11.4569 66.603 11.5056 66.4487 11.5056C66.0035 11.5056 65.5618 11.1562 65.1253 10.4591C64.6889 9.76191 64.4698 9.28146 64.4698 9.01771C64.4698 8.72205 64.645 8.27016 64.9974 7.66203C65.3479 7.05391 65.5846 6.5869 65.7038 6.25764ZM68.9693 5.49328C69.2778 5.64111 69.4917 5.78054 69.6126 5.91158C69.7318 6.04261 69.7932 6.18204 69.7932 6.32987C69.7932 6.4945 69.6512 6.75321 69.369 7.10599C69.0868 7.45877 68.9448 7.74267 68.9448 7.95602C68.9448 8.10385 68.9869 8.25504 69.0727 8.41127C69.1586 8.5675 69.39 8.76909 69.7669 9.01436C70.1946 9.2445 70.4102 9.49985 70.4102 9.77871C70.4102 10.2558 69.8966 10.6405 68.8677 10.9362C68.6275 10.953 68.3874 10.9614 68.1472 10.9614C68.4557 10.6657 68.61 10.37 68.61 10.0744C68.61 9.81231 68.4645 9.48305 68.1735 9.08827C67.8826 8.69349 67.7371 8.40623 67.7371 8.22648C67.7371 7.8485 67.9088 7.46717 68.2507 7.08079C68.5925 6.69441 68.8326 6.16524 68.9711 5.4916L68.9693 5.49328Z" fill="white"/>
<path d="M78.3523 20.3503C77.9246 20.2848 77.6161 19.9774 77.4268 19.4264C77.2375 18.8771 77.1446 18.1749 77.1446 17.3198C77.1446 16.0884 77.2866 14.6588 77.5688 13.0327C77.851 11.4065 78.1122 9.93662 78.3523 8.62294C78.6784 9.04963 78.9132 9.45617 79.0587 9.84255C79.2042 10.2289 79.2778 10.5851 79.2778 10.9143C79.2778 10.963 79.1832 11.5174 78.9956 12.5774C78.8063 13.6374 78.7134 14.5278 78.7134 15.2502L78.7642 16.4328C79.7073 14.7411 80.6573 13.0495 81.6179 11.3578C81.532 11.6367 81.3006 12.6547 80.9238 14.4136C80.5469 16.1707 80.1823 17.5096 79.8317 18.4285C79.4812 19.3491 78.9869 19.9892 78.3541 20.3503H78.3523ZM80.794 5.49328C80.794 5.01787 80.6819 4.48366 80.4592 3.89233C80.2366 3.30101 79.9369 2.92303 79.56 2.7584C79.7493 2.70968 79.9281 2.68448 80.0999 2.68448C80.5627 2.68448 81.0166 2.85751 81.4619 3.20189C81.9071 3.54627 82.2244 3.91585 82.4137 4.31063C82.4645 4.49206 82.4908 4.63989 82.4908 4.75412C82.4908 5.1153 82.2244 5.31185 81.6933 5.34545C81.1621 5.37905 80.8624 5.42776 80.794 5.49328ZM84.8817 8.22816C85.3094 8.22816 85.8493 8.08873 86.5013 7.80987C87.1516 7.531 87.5811 7.39157 87.7862 7.39157C88.0947 7.39157 88.3436 7.531 88.5311 7.80987C88.7187 8.08873 88.8133 8.38439 88.8133 8.69685C88.8133 9.15715 88.6556 9.60904 88.3383 10.0525C88.021 10.496 87.6827 10.8001 87.3234 10.9647C87.2042 10.8505 87.1429 10.6439 87.1429 10.3482C87.1429 10.0357 87.1989 9.68296 87.3094 9.28818C87.4198 8.8934 87.5618 8.54062 87.7336 8.22816L86.9115 8.62294C86.9115 9.01772 86.4908 9.83415 85.6512 11.0739C84.8116 12.3137 83.972 12.9336 83.1323 12.9336C82.9956 12.9336 82.8922 12.9252 82.8238 12.9084C82.8238 12.6127 83.1236 12.1491 83.7231 11.5157C84.3225 10.8841 84.7081 10.4356 84.8799 10.1735C85.2568 9.79551 85.5355 9.47633 85.716 9.21258C85.8966 8.95052 86.0193 8.75229 86.0894 8.62126C85.7634 8.62126 85.511 8.58094 85.3304 8.49863C85.1499 8.41631 85.0009 8.3256 84.8799 8.22816H84.8817ZM95.4724 3.91753C95.4724 4.11408 95.3094 4.28711 94.9833 4.43494C94.6573 4.58277 94.2805 4.65669 93.8528 4.65669C94.0929 4.88684 94.2121 5.12538 94.2121 5.37065C94.2121 5.58399 94.1227 5.78558 93.9422 5.97373C93.7616 6.16188 93.5951 6.25764 93.4408 6.25764C93.4408 6.42227 93.5302 6.61041 93.7108 6.82376C93.8913 7.03711 94.0754 7.24206 94.2629 7.44029L94.6748 7.04551V8.03161C94.8799 8.22816 95.0815 8.39783 95.2796 8.53726C95.4759 8.67669 95.9684 8.99252 96.7572 9.48641C97.546 9.97862 98.021 10.3028 98.184 10.4591C98.3471 10.6153 98.5311 10.9143 98.7362 11.3578C98.0684 11.3578 97.369 11.2301 96.6415 10.9765C95.9124 10.7228 95.2568 10.323 94.6748 9.78207L93.8528 9.01772L93.4408 9.38729C93.7143 9.58384 93.9895 9.81399 94.2629 10.0777C94.5364 10.3398 94.6748 10.6371 94.6748 10.9647C94.7607 11.5392 94.8291 12.2986 94.8799 13.2427C94.9308 14.1868 94.9571 15.1527 94.9571 16.1371C94.9571 17.6323 94.901 18.872 94.7905 19.8564C94.6784 20.8425 94.5031 21.3919 94.2629 21.5078C93.9194 21.1802 93.688 20.6695 93.5688 19.9808C93.4496 19.2903 93.3883 18.4621 93.3883 17.4928C93.3883 17.1316 93.3918 16.7335 93.4005 16.2984C93.4093 15.8633 93.4216 15.3913 93.4391 14.8823C93.4391 14.4556 93.5074 13.7567 93.6442 12.7874C93.7809 11.8181 93.8492 11.21 93.8492 10.9647C93.5758 10.7027 93.369 10.4843 93.2323 10.3112C93.0955 10.1382 93.0272 9.96182 93.0272 9.78207C92.9588 9.89798 92.8677 10.0089 92.7572 10.1147C92.6468 10.2205 92.4785 10.2743 92.2559 10.2743C92.1017 10.2743 91.9562 10.2424 91.8195 10.1752C91.5793 10.1752 91.4601 9.99542 91.4601 9.63256C91.4601 9.41921 91.5197 9.04123 91.6407 8.49863C91.7599 7.95602 91.8212 7.60324 91.8212 7.43861H91.4093C91.4093 7.17654 91.7476 6.71121 92.4242 6.04597C93.1008 5.38073 93.4391 4.91707 93.4391 4.65333H92.6678C92.291 5.04811 91.9474 5.38913 91.6389 5.67639C91.3304 5.96365 90.9798 6.28787 90.5854 6.64905C90.6889 6.94472 90.7818 7.26558 90.8677 7.60996C90.9536 7.95434 90.9956 8.292 90.9956 8.61958C90.9956 9.12859 90.8589 9.51497 90.5837 9.77703C90.3103 10.0391 90.0351 10.1718 89.7616 10.1718C89.6582 10.1718 89.5811 10.0693 89.5302 9.86439C89.4794 9.65944 89.4531 9.38393 89.4531 9.03955C89.4531 8.3004 89.5565 7.63516 89.7616 7.04383C89.4864 7.04383 89.2603 7.02367 89.0798 6.98167C88.8992 6.94136 88.6941 6.80528 88.4627 6.57514C88.2314 6.34499 88.0508 6.13164 87.9229 5.93509C87.7949 5.73855 87.7301 5.45968 87.7301 5.09682L85.674 5.4916C85.5022 5.4748 85.3269 5.44624 85.1464 5.40593C84.9658 5.36561 84.8764 5.26313 84.8764 5.0985C85.5618 4.77092 86.3979 4.47526 87.383 4.21151C88.3681 3.94945 89.2989 3.7193 90.1718 3.52107C90.1718 2.99527 90.0123 2.53161 89.6968 2.12844C89.3795 1.72694 88.9991 1.40944 88.5521 1.17929C88.8256 0.769395 89.1954 0.562767 89.6582 0.562767C90.1542 0.562767 90.6047 0.809713 91.0079 1.30192C91.411 1.79414 91.681 2.53329 91.8177 3.5194C92.1087 3.42028 92.447 3.32621 92.8326 3.23549C93.2182 3.14478 93.6074 3.09942 94.0018 3.09942C94.3961 3.09942 94.6994 3.16158 94.9658 3.28421C95.2305 3.40684 95.3988 3.61683 95.4671 3.91249L95.4724 3.91753ZM86.9115 11.7509C88.2647 12.013 88.9413 12.7454 88.9413 13.9432C88.9413 14.4522 88.8133 15.0183 88.5557 15.6433C89.3953 15.1174 90.2471 14.5631 91.1131 13.9801C91.979 13.3972 92.7537 12.9084 93.4391 12.5136C92.7713 13.3838 92.0771 14.2792 91.3567 15.1998C90.6363 16.1203 90.1525 16.6378 89.9036 16.752C89.6547 16.8679 89.4531 16.925 89.2989 16.925C89.0587 16.925 88.8869 16.8629 88.7853 16.7402C88.6819 16.6176 88.6047 16.5151 88.5539 16.4328C88.142 17.3534 87.7914 18.1043 87.5004 18.6872C87.2095 19.2702 86.7379 19.5625 86.0859 19.5625C86.0508 19.3978 86.0351 19.2668 86.0351 19.1677C86.0351 18.9375 86.2612 18.0959 86.7169 16.6428C87.1709 15.1897 87.3988 14.1515 87.3988 13.5266C87.3988 12.821 87.2358 12.2297 86.9097 11.7526L86.9115 11.7509ZM91.411 4.70541L88.5574 5.10018C88.5907 5.29673 88.6941 5.49832 88.8659 5.70327C89.0377 5.90822 89.4741 6.09301 90.177 6.25764C90.589 5.87966 90.8799 5.56048 91.0517 5.29673C91.2235 5.03467 91.3427 4.83644 91.411 4.70541ZM88.943 11.7509C89.7651 11.4889 90.3997 11.2957 90.8449 11.1713C91.2901 11.0487 91.6582 10.9866 91.9509 10.9866C92.4996 10.9866 92.8589 11.2419 93.0307 11.7509C93.0307 11.9323 92.8887 12.1373 92.6065 12.3674C92.3243 12.5976 91.9422 12.7118 91.4619 12.7118C91.1025 12.7118 90.7239 12.6429 90.3313 12.5018C89.9369 12.3624 89.4741 12.1121 88.943 11.7509ZM92.6188 7.04551V8.62294C92.8063 8.60614 92.9921 8.57758 93.1709 8.53726C93.3514 8.49695 93.4408 8.39447 93.4408 8.22984C93.2515 8.03329 93.0675 7.82834 92.8887 7.61332C92.7081 7.39997 92.6188 7.21182 92.6188 7.04719V7.04551Z" fill="white"/>
<path d="M104.47 10.1752C104.847 10.5531 105.143 11.0218 105.357 11.5796C105.571 12.139 105.677 12.7135 105.677 13.3048C105.677 13.9617 105.579 14.4673 105.381 14.8201C105.185 15.1729 104.94 15.3493 104.649 15.3493C104.375 15.3493 104.138 15.1695 103.942 14.8067C103.746 14.4455 103.646 13.9449 103.646 13.3031C103.646 13.0075 103.783 12.4414 104.058 11.6031C104.331 10.7648 104.47 10.2894 104.47 10.1735V10.1752ZM108.941 4.70541C110.072 4.70541 110.638 4.91875 110.638 5.34545C110.638 5.80574 110.072 6.24084 108.941 6.65073V7.43861C109.369 7.22526 109.713 7.11775 109.97 7.11775C110.21 7.11775 110.33 7.20846 110.33 7.38821C110.33 7.56796 110.217 7.79475 109.995 8.06521C109.772 8.33567 109.42 8.65318 108.941 9.01436V10.0492C109.301 10.0173 110.479 9.75855 112.477 9.27306C114.473 8.78925 115.609 8.52214 115.883 8.47175L116.037 7.46213C115.592 7.46213 115.257 7.40501 115.034 7.2891C114.812 7.17486 114.699 7.02703 114.699 6.8456C114.699 6.66417 114.841 6.48442 115.124 6.30299C115.406 6.12324 115.795 5.98213 116.293 5.8847L116.473 4.70205C115.358 4.70205 114.803 4.5139 114.803 4.13592C114.803 3.72602 115.437 3.5194 116.705 3.5194V2.75504C116.705 2.68952 116.429 2.52489 115.883 2.26283C115.334 2.00076 115.06 1.63958 115.06 1.17929C115.557 1.13057 115.995 1.10538 116.372 1.10538C117.365 1.10538 118.068 1.28177 118.48 1.63454C118.892 1.98732 119.097 2.48458 119.097 3.12462C119.097 3.76466 118.84 4.72556 118.326 6.00733C117.812 7.2891 117.528 8.03665 117.478 8.25C117.564 8.2332 117.76 8.2248 118.068 8.2248C119.353 8.2248 120.331 8.40959 120.999 8.77917C121.667 9.14875 122.002 9.6124 122.002 10.1718C122.002 10.8119 121.325 11.2553 119.97 11.5023C118.617 11.7492 117.39 11.9626 116.294 12.1423C116.535 11.9122 117.001 11.5594 117.695 11.0823C118.389 10.6069 118.736 10.3028 118.736 10.1701C117.416 10.1701 116.265 10.244 115.28 10.3919C114.294 10.5397 112.966 10.7615 111.295 11.0571C109.625 11.3528 108.489 11.5006 107.89 11.5006C107.067 11.5006 106.466 11.3209 106.089 10.958C106.294 10.7615 106.57 10.58 106.911 10.4154C107.255 10.2508 107.528 10.1684 107.734 10.1684C107.734 8.64142 107.648 7.49908 107.476 6.74481C107.287 6.33491 107.099 5.91494 106.91 5.48824C106.91 5.29169 107.111 4.85996 107.514 4.19472C107.918 3.52947 108.119 2.52321 108.119 1.17761C108.668 1.35904 109.053 1.58415 109.276 1.85461C109.499 2.12508 109.611 2.44258 109.611 2.80376C109.611 3.16494 109.513 3.56811 109.315 3.96121C109.117 4.35599 108.994 4.60125 108.941 4.70037V4.70541ZM109.765 12.1457C110.605 11.8668 111.444 11.588 112.284 11.3074C113.038 11.0941 113.628 10.9866 114.058 10.9866C114.487 10.9866 114.85 11.0773 115.099 11.257C115.348 11.4385 115.472 11.7341 115.472 12.144C115.422 12.275 115.288 12.4649 115.075 12.7101C114.861 12.9571 114.316 13.4157 113.443 14.0893L114.086 14.8537C114.377 14.7714 114.638 14.7109 114.869 14.6689C115.101 14.6286 115.302 14.6067 115.474 14.6067C115.697 14.6235 115.919 14.6319 116.142 14.6319C116.605 14.6319 117.195 14.7915 117.916 15.1124C118.636 15.4333 118.945 15.7491 118.841 16.0615C118.738 16.3572 118.524 16.505 118.198 16.505C118.163 16.505 117.83 16.4597 117.195 16.369C116.561 16.2783 116.098 16.2329 115.807 16.2329H115.371C115.216 16.2329 114.976 16.2665 114.65 16.332C114.65 17.728 114.522 18.9594 114.265 20.0278C114.007 21.0962 113.597 21.7195 113.031 21.9009C112.894 21.9664 112.748 22 112.594 22C112.268 22 111.939 21.827 111.604 21.4826C111.269 21.1382 110.931 20.6292 110.589 19.9556C111.634 19.9556 112.307 19.7674 112.606 19.3894C112.906 19.0115 113.057 18.059 113.057 16.5319C112.852 16.5 112.689 16.4832 112.568 16.4832C112.174 16.4832 111.415 16.6394 110.293 16.9519C109.171 17.2644 108.421 17.4206 108.044 17.4206C107.409 17.4206 106.896 17.2324 106.501 16.8545C107.032 16.8545 107.884 16.6814 109.059 16.337C110.233 15.9927 111.376 15.6315 112.491 15.2535C112.405 14.9746 112.268 14.7361 112.079 14.5396C111.89 14.343 111.797 14.1952 111.797 14.0961C111.9 13.8995 111.993 13.6946 112.079 13.4795C112.165 13.2662 112.207 13.078 112.207 12.9134C111.898 13.0125 111.616 13.0982 111.358 13.1721C111.101 13.246 110.878 13.283 110.691 13.283C110.4 13.283 110.172 13.1973 110.009 13.0243C109.846 12.8513 109.765 12.5606 109.765 12.1491V12.1457ZM111.436 7.04551C111.246 6.9464 111.059 6.83216 110.869 6.70113C110.68 6.5701 110.587 6.42227 110.587 6.25764C110.741 6.17532 110.973 6.11484 111.281 6.07285C111.59 6.03253 111.812 5.99557 111.949 5.96197C112.053 5.78222 112.163 5.52688 112.284 5.19762C112.403 4.87004 112.515 4.57437 112.619 4.31063C112.859 4.26191 113.064 4.23671 113.236 4.23671C113.562 4.23671 113.814 4.31399 113.995 4.47022C114.175 4.62645 114.265 4.83644 114.265 5.0985C114.265 5.60751 113.989 6.12492 113.443 6.65073C113.665 6.79856 113.858 6.96319 114.021 7.14294C114.184 7.32437 114.265 7.50412 114.265 7.68555C114.265 7.99801 114.033 8.15425 113.571 8.15425C113.262 8.15425 112.945 8.04841 112.619 7.83338C112.429 8.19456 112.114 8.55238 111.667 8.90516C111.222 9.25794 110.777 9.43433 110.33 9.43433C109.97 9.43433 109.644 9.2949 109.353 9.01604C109.902 8.83629 110.309 8.5927 110.575 8.28864C110.84 7.98458 111.127 7.56964 111.436 7.04383V7.04551ZM112.617 3.52275C112.273 3.85202 111.879 4.05696 111.434 4.13928C110.989 4.22159 110.568 4.27871 110.174 4.31231C110.396 4.09896 110.592 3.89401 110.764 3.69578C110.936 3.49924 111.15 3.21197 111.408 2.834C111.236 2.65425 111.125 2.50977 111.073 2.40226C111.022 2.29643 110.996 2.15195 110.996 1.97053C111.082 1.93861 111.236 1.92181 111.458 1.92181H111.767C111.853 1.92181 111.93 1.93021 111.998 1.94701C112.135 1.66814 112.272 1.36072 112.41 1.02306C112.547 0.68708 112.615 0.34606 112.615 0C113.232 0 113.674 0.131032 113.939 0.394777C114.203 0.656842 114.337 0.994502 114.337 1.4044C114.337 1.68326 114.277 1.94197 114.156 2.18051C114.035 2.41906 113.898 2.56185 113.744 2.61225C114.018 2.87431 114.156 3.11286 114.156 3.32621C114.156 3.67059 113.951 3.84362 113.539 3.84362C113.264 3.84362 112.955 3.73778 112.614 3.52275H112.617Z" fill="white"/>
</g>
<defs>
<clipPath id="clip0_126_269">
<rect width="122" height="22" fill="white"/>
</clipPath>
</defs>
</svg>
