<svg width="92" height="28" viewBox="0 0 92 28" fill="none" xmlns="http://www.w3.org/2000/svg">
<g clip-path="url(#clip0_126_244)">
<path d="M26.5435 0L6.82395 3.08384L3.01734 16.8325L26.5435 0Z" fill="white"/>
<path d="M2.1294 19.9994L0 27.7348L25.4788 9.86512L13.6602 11.7495L2.1294 19.9994Z" fill="white"/>
<path d="M49.1037 24.9953C49.0303 24.8945 48.9272 24.8173 48.8077 24.7736C48.6848 24.7264 48.5536 24.7023 48.4213 24.7024C48.3423 24.7025 48.2636 24.7118 48.187 24.7301C48.1139 24.746 48.0444 24.7742 47.9814 24.8132C47.9217 24.8517 47.8724 24.9032 47.8375 24.9637C47.7998 25.0303 47.7813 25.1055 47.7841 25.1814C47.7803 25.2366 47.7907 25.2918 47.8144 25.3422C47.838 25.3927 47.8742 25.4367 47.9198 25.4704C48.0243 25.5437 48.1392 25.6024 48.2609 25.6446C48.3966 25.6921 48.5446 25.7396 48.7049 25.7871C48.861 25.8313 49.0102 25.8952 49.1489 25.9771C49.2858 26.0584 49.4023 26.1679 49.4901 26.2978C49.5882 26.4566 49.6353 26.6397 49.6257 26.8243C49.6304 27.0047 49.591 27.1837 49.5106 27.3468C49.4364 27.4905 49.3296 27.6163 49.1982 27.715C49.063 27.8143 48.9096 27.8881 48.746 27.9327C48.5698 27.9826 48.3871 28.008 48.2034 28.0079C47.9653 28.0089 47.7288 27.9701 47.5046 27.8931C47.2797 27.8125 47.0812 27.6759 46.929 27.4972L47.4511 27.0143C47.5346 27.1355 47.6493 27.2337 47.7841 27.2993C47.9931 27.4035 48.235 27.4289 48.4624 27.3706C48.5398 27.3502 48.6133 27.3182 48.6803 27.2756C48.7456 27.2353 48.8005 27.1811 48.8406 27.1172C48.8821 27.0503 48.9035 26.9735 48.9022 26.8955C48.9051 26.837 48.8944 26.7785 48.8709 26.7245C48.8475 26.6704 48.8118 26.622 48.7666 26.5828C48.6642 26.5032 48.5489 26.4404 48.4254 26.3967C48.2897 26.3453 48.1417 26.2978 47.9814 26.2502C47.8255 26.2076 47.6762 26.145 47.5374 26.0642C47.4011 25.9855 47.2846 25.8787 47.1962 25.7515C47.0977 25.5928 47.0505 25.4095 47.0606 25.2249C47.0553 25.0511 47.0978 24.879 47.1839 24.7261C47.2643 24.5885 47.3752 24.4696 47.5087 24.3778C47.648 24.283 47.804 24.2132 47.9691 24.1719C48.1447 24.1272 48.3259 24.1059 48.5076 24.1086C48.7098 24.1076 48.9109 24.137 49.1037 24.1957C49.2964 24.2558 49.4732 24.3558 49.6216 24.4886L49.1037 24.9953Z" fill="white"/>
<path d="M51.751 24.7974H50.5589V24.1996H53.6379V24.7974H52.4458V27.905H51.751V24.7974Z" fill="white"/>
<path d="M54.5053 26.0681C54.5027 25.7973 54.5544 25.5285 54.6574 25.2764C54.7515 25.0435 54.8957 24.8324 55.0807 24.657C55.2656 24.4817 55.487 24.346 55.7303 24.259C55.9933 24.1649 56.2719 24.1179 56.5525 24.1205C56.8322 24.1149 57.1107 24.1578 57.3746 24.2471C57.6194 24.3325 57.8423 24.4675 58.0282 24.643C58.2079 24.8195 58.3478 25.0297 58.4393 25.2606C58.5426 25.5126 58.5943 25.7814 58.5914 26.0523C58.596 26.3233 58.5443 26.5925 58.4393 26.8441C58.3464 27.0719 58.2066 27.2793 58.0282 27.4537C57.8396 27.6258 57.6174 27.7603 57.3746 27.8496C57.1121 27.9467 56.8337 27.9977 56.5525 28C56.2719 28.0025 55.9933 27.9556 55.7303 27.8614C55.4919 27.7739 55.2749 27.6397 55.0931 27.4673C54.9112 27.2949 54.7685 27.0881 54.6738 26.8599C54.5687 26.6084 54.5169 26.3392 54.5217 26.0681M55.2493 26.0246C55.2468 26.212 55.2788 26.3983 55.3439 26.5749C55.4033 26.736 55.4955 26.884 55.6152 27.0103C55.7306 27.1324 55.8704 27.2307 56.0263 27.2993C56.1989 27.3705 56.3853 27.4055 56.573 27.4022C56.7621 27.4054 56.9497 27.3703 57.1239 27.2993C57.2799 27.2309 57.4197 27.1325 57.535 27.0103C57.6547 26.8841 57.747 26.736 57.8063 26.5749C57.8713 26.3983 57.9034 26.212 57.9008 26.0246C57.9029 25.8476 57.8709 25.6717 57.8063 25.506C57.7453 25.3503 57.6531 25.2077 57.535 25.0864C57.4195 24.9664 57.2795 24.8707 57.1239 24.8053C56.9495 24.735 56.762 24.6999 56.573 24.7024C56.3853 24.6998 56.1991 24.7348 56.0263 24.8053C55.871 24.8713 55.7311 24.9669 55.6152 25.0864C55.4971 25.2078 55.4049 25.3504 55.3439 25.506C55.2793 25.6717 55.2472 25.8476 55.2493 26.0246Z" fill="white"/>
<path d="M59.9028 24.1996H61.2511C61.4333 24.1994 61.6151 24.2167 61.7937 24.2511C61.9578 24.2809 62.1151 24.3385 62.2583 24.4213C62.3934 24.5012 62.5052 24.6129 62.583 24.7459C62.6688 24.9059 62.7099 25.0846 62.7022 25.2645C62.7102 25.5086 62.6271 25.7474 62.4679 25.9375C62.298 26.1253 62.0595 26.243 61.802 26.2661L62.8338 27.905H62.0116L61.1114 26.3215H60.5934V27.905H59.9028V24.1996ZM61.136 25.7831C61.2347 25.7831 61.3333 25.7831 61.432 25.7831C61.5252 25.7751 61.6166 25.7538 61.7033 25.7198C61.7836 25.6885 61.8533 25.6364 61.9047 25.5693C61.961 25.4845 61.9883 25.3848 61.9828 25.2843C61.9868 25.192 61.961 25.1007 61.9089 25.023C61.8619 24.9566 61.7963 24.9045 61.7197 24.8726C61.6387 24.8382 61.5528 24.8156 61.4649 24.8053C61.3745 24.8004 61.2839 24.8004 61.1936 24.8053H60.5934V25.7712L61.136 25.7831Z" fill="white"/>
<path d="M63.9848 24.1996H65.0413L66.0813 26.7965L67.1296 24.1996H68.1737V27.905H67.516V24.8291H67.5037L66.3239 27.905H65.8388L64.6549 24.8291H64.6425V27.905H63.9848V24.1996Z" fill="white"/>
<path d="M71.9105 24.1996H72.9669L74.007 26.7965L75.0552 24.1996H76.1035V27.905H75.4416V24.8291H75.4293L74.2495 27.905H73.7644L72.5846 24.8291H72.5723V27.905H71.9105V24.1996Z" fill="white"/>
<path d="M77.5916 24.1996H80.1691V24.7974H78.2822V25.7079H80.0704V26.3017H78.2822V27.3072H80.2677V27.905H77.5916V24.1996Z" fill="white"/>
<path d="M81.5544 24.1996H83.0878C83.3403 24.1984 83.5915 24.2358 83.8318 24.3105C84.0649 24.3827 84.2803 24.4999 84.4649 24.6549C84.653 24.8148 84.803 25.012 84.9047 25.2329C85.0194 25.4916 85.0755 25.771 85.0692 26.0523C85.077 26.3375 85.012 26.6203 84.8801 26.8757C84.761 27.0982 84.5943 27.2939 84.3909 27.4497C84.1921 27.6011 83.9665 27.7165 83.7249 27.7902C83.4939 27.8626 83.2526 27.9 83.0096 27.901H81.5585L81.5544 24.1996ZM82.763 27.3151C82.9694 27.3159 83.1752 27.2919 83.3755 27.2439C83.5558 27.2014 83.726 27.1261 83.877 27.0222C84.0217 26.9192 84.1376 26.7832 84.2141 26.6263C84.3012 26.4455 84.3434 26.2476 84.3374 26.0484C84.3422 25.8517 84.3044 25.6562 84.2264 25.4743C84.1608 25.3201 84.0563 25.184 83.9222 25.0785C83.7858 24.9755 83.6292 24.9002 83.4618 24.8568C83.2714 24.8082 83.0751 24.7842 82.8781 24.7855H82.245V27.3151H82.763Z" fill="white"/>
<path d="M87.0095 24.1996H86.3147V27.901H87.0095V24.1996Z" fill="white"/>
<path d="M89.7226 24.1996H90.3228L92 27.905H91.2066L90.849 27.0578H89.1594L88.7936 27.905H88.0166L89.7226 24.1996ZM90.6023 26.4917L90.0021 24.9874L89.3896 26.4917H90.6023Z" fill="white"/>
<path d="M49.2105 15.5221C48.9872 15.3916 48.785 15.2302 48.6104 15.0431L48.5035 14.9164V15.0787C48.4418 17.7667 48.2157 17.9013 48.1705 17.9013C46.9373 17.9013 46.9373 9.12484 46.9373 3.8835V3.8162H34.6048V9.29111C34.6048 12.3235 34.3417 15.7636 32.3809 18.2972L32.3357 18.3566L32.4055 18.3882C32.6556 18.506 32.8791 18.6701 33.0633 18.8712L33.1126 18.9385L33.166 18.8712C34.8104 16.7454 35.5955 13.6101 35.5955 9.28715V4.75046H45.9959V5.6768C46.0822 13.3527 46.1398 18.8989 48.1047 18.8989C48.9639 18.8989 49.1571 18.0161 49.264 15.5973V15.5617L49.2105 15.5221Z" fill="white"/>
<path d="M43.4184 14.2316L43.3896 14.2039L42.5428 14.5285L42.6045 14.5918C43.0838 15.0922 43.53 15.6211 43.9405 16.1753L41.1081 16.3099V13.5863H44.516V8.81606H41.1081V7.01089C41.2109 6.99306 41.3039 6.94126 41.3712 6.86441C42.4876 6.69315 43.5936 6.46454 44.6845 6.17955C44.7323 6.1858 44.7807 6.1858 44.8284 6.17955C44.8692 6.18339 44.9103 6.17903 44.9492 6.16676C44.9881 6.1545 45.024 6.13459 45.0545 6.1083L45.1038 6.06079L44.1748 5.34031H44.1419C42.2181 5.93807 38.6622 6.46062 35.9737 6.72982H35.8792L35.9244 6.80899C36.0401 7.0196 36.1245 7.2448 36.1752 7.47801V7.53344H36.2327C37.4043 7.42259 38.7444 7.25633 40.1133 7.05839V8.82002H36.7425V13.5863H40.1133V16.3574C38.2593 16.4445 36.5616 16.5158 35.4311 16.5633H35.353L35.7641 17.6955H35.8134C35.8735 17.6844 35.9291 17.6574 35.9742 17.6175C36.0192 17.5777 36.0518 17.5265 36.0683 17.4698C38.1237 17.3629 41.326 17.161 44.4214 16.9354C44.7091 17.3677 44.954 17.8249 45.1532 18.3011L45.1778 18.3605L46.0288 17.9647V17.9132C45.6506 16.9077 44.5736 15.3954 43.402 14.2276M40.1133 12.7154H37.6468V9.66322H40.1133V12.7154ZM41.1081 9.66322H43.6157V12.7194H41.1081V9.66322Z" fill="white"/>
<path d="M57.9954 3.46388C58.0779 3.47299 58.1613 3.45781 58.2347 3.42036C58.3081 3.38291 58.3679 3.32493 58.4064 3.25406L58.4352 3.19468L57.202 2.79881V2.85423C56.1743 5.94995 54.4929 9.01795 52.8157 10.8548L52.7828 10.8904L52.8116 10.93C52.9847 11.1689 53.1452 11.4159 53.2926 11.6703L53.3378 11.7495L53.3954 11.6822C54.1842 10.752 54.8871 9.75723 55.496 8.70917V18.8989H56.4867V7.26028C56.5545 7.25722 56.6202 7.23644 56.6766 7.20018C56.7331 7.16391 56.7783 7.11353 56.8073 7.05443L56.832 6.99109L56.4949 6.904C57.058 5.78528 57.5548 4.63673 57.983 3.46388" fill="white"/>
<path d="M60.4742 14.9719L60.4372 14.9442L59.6849 15.439L59.7507 15.4905C60.6481 16.1896 61.4665 16.9777 62.1925 17.8419L62.2336 17.8934L62.9982 17.2956L62.9612 17.2481C62.2182 16.4113 61.3921 15.6462 60.4947 14.9639" fill="white"/>
<path d="M67.2406 12.85C67.2953 12.8497 67.3493 12.8374 67.3985 12.8141C67.4476 12.7908 67.4906 12.757 67.5242 12.7154L68.4163 12.6837C68.7201 12.9421 69.0071 13.2185 69.2754 13.5111L69.3124 13.5546L70.0852 13.0321L70.04 12.9806C69.2139 12.1654 68.3003 11.4369 67.3146 10.8073H68.9589V6.0885H64.3548V5.01173H69.781V4.16061H64.3548V3.23427C64.4271 3.23129 64.4963 3.20513 64.5514 3.15995C64.6065 3.11476 64.6444 3.05314 64.659 2.98487V2.91757L63.3517 2.8384V4.16061H58.1392V5.01173H63.3682V6.0885H58.8956V10.8113H63.3641V12.0266C61.3868 12.0582 59.4793 12.078 57.983 12.078H57.8967L58.2461 13.1627H58.2995C58.3609 13.1524 58.4187 13.1279 58.4681 13.0913C58.5175 13.0548 58.557 13.0073 58.5832 12.9529C60.6386 12.9173 63.4956 12.846 66.2663 12.7629V13.9941H57.5802V14.861H66.2704V17.7509C66.2704 18.0201 66.2704 18.0201 65.2674 18.0201C64.9056 18.0201 64.4247 18.0201 63.8656 17.9963H63.3353L63.4257 18.2022C63.5298 18.4121 63.6137 18.6307 63.6765 18.8554V18.9029H63.7176C65.5798 18.9029 66.143 18.9029 66.5664 18.7801C67.1172 18.6218 67.2241 18.3011 67.2241 17.7667V14.8769H69.9825V13.9861H67.2241L67.2406 12.85ZM64.363 6.84858H67.9846V8.0639H64.363V6.84858ZM64.363 8.82794H67.9846V10.0591H64.363V8.82794ZM64.363 10.8073H66.3855L66.1142 10.9696L66.1923 11.0211C66.5253 11.2428 67.0145 11.5792 67.5283 11.9593C66.4842 11.991 65.4277 12.0068 64.4 12.0226H64.3589L64.363 10.8073ZM63.3723 10.0433H59.8575V8.8121H63.3723V10.0433ZM63.3723 8.0639H59.8575V6.85254H63.3723V8.0639Z" fill="white"/>
<path d="M88.3743 6.54772L85.2377 7.0386L84.6334 9.22381L88.3743 6.54772Z" fill="white"/>
<path d="M91.9137 17.45C90.2606 16.4884 88.8305 15.2096 87.7124 13.6932H91.8561V12.8064H86.9725V11.223C87.0338 11.2215 87.0935 11.2037 87.1451 11.1715C87.1966 11.1394 87.2378 11.0942 87.2643 11.0409H89.9117V5.60158H91.9137V4.699H89.9117V3.09572C89.9844 3.09185 90.0537 3.06489 90.1087 3.01904C90.1638 2.97319 90.2015 2.91105 90.2159 2.84236V2.77506L88.9251 2.69588V4.69504H84.0702V3.09572C84.1423 3.09207 84.2112 3.06567 84.2662 3.0206C84.3212 2.97552 84.3592 2.91428 84.3744 2.84632V2.77902L83.1042 2.69984V4.699H80.9953V5.60158H83.1042V11.0369H85.9818V12.8104H81.2214V13.6932H85.2048C84.0638 15.2677 82.5813 16.5846 80.8597 17.5529L80.7816 17.5925L80.8474 17.6519C81.0817 17.8542 81.2901 18.0828 81.4681 18.3328L81.501 18.3843L81.5544 18.3526C83.2998 17.2269 84.8031 15.7873 85.9818 14.1128V18.8633H86.9725V14.1128C88.1124 15.7146 89.5458 17.103 91.2025 18.2101L91.2518 18.2418L91.2847 18.1943C91.4633 17.9458 91.6763 17.7221 91.9178 17.5292L91.9959 17.4738L91.9137 17.45ZM88.9374 10.1699H84.0702V5.60158H88.9374V10.1699Z" fill="white"/>
<path d="M81.0529 17.0819L81.6736 16.2901L81.6408 16.2307C81.0538 15.5468 80.4045 14.9148 79.7004 14.3424C80.5761 12.3631 81.1146 9.88491 81.3448 6.77732C81.3856 6.72353 81.4162 6.66322 81.4352 6.59918V6.54376L80.8556 6.38541L80.6912 6.42104H78.0315C78.3151 5.14633 78.5494 4.04581 78.7262 3.13926C78.9235 3.13926 79.0386 3.05217 79.0592 2.91757V2.85819L77.7848 2.68401L77.7519 2.84236C77.5423 3.931 77.2997 5.16217 77.0243 6.4052H75.0635V7.32362H76.8147C76.4036 9.14859 75.8363 11.6465 75.3348 13.3567V13.4042L76.2063 13.8436L76.4365 13.0044C77.1271 13.4755 77.8341 14.0059 78.4919 14.5522C77.7964 15.9928 76.679 17.2063 75.2772 18.0438L75.1991 18.0874L75.269 18.1428C75.4907 18.3401 75.6806 18.5683 75.8322 18.8197L75.8651 18.8752L75.9185 18.8395C77.3553 17.9449 78.5098 16.6879 79.2565 15.2054C79.8801 15.767 80.4574 16.3745 80.983 17.0225L81.0529 17.0819ZM76.6872 12.1295C77.0613 10.6885 77.4683 8.9942 77.8383 7.35529H80.3335C80.1899 9.52423 79.7062 11.6597 78.8988 13.6892C78.1918 13.1234 77.4535 12.5948 76.6872 12.1058" fill="white"/>
<path d="M33.4908 24.7024H32.2987V24.1086H35.3777V24.7024H34.1855V27.81H33.4908V24.7024Z" fill="white"/>
<path d="M40.5244 24.1086H43.1019V24.7024H41.2191V25.6129H43.0032V26.2107H41.2191V27.2162H43.2005V27.81H40.5244V24.1086Z" fill="white"/>
<path d="M38.7115 24.073V25.5852H36.7301V24.073H36.0642V27.8258H36.7301V26.1592H38.7115V27.8258H39.3816V24.073H38.7115Z" fill="white"/>
</g>
<defs>
<clipPath id="clip0_126_244">
<rect width="92" height="28" fill="white"/>
</clipPath>
</defs>
</svg>
