<svg width="224" height="71" viewBox="0 0 224 71" fill="none" xmlns="http://www.w3.org/2000/svg">
<g clip-path="url(#clip0_205_502)">
<path d="M64.5698 0L16.5998 7.79L7.33984 42.52L64.5698 0Z" fill="#332D2D"/>
<path d="M5.18 50.5199L0 70.0599L61.98 24.9199L33.23 29.6799L5.18 50.5199Z" fill="#332D2D"/>
<path d="M119.45 63.14C119.272 62.8853 119.021 62.6902 118.73 62.58C118.431 62.4607 118.112 62.3996 117.79 62.4C117.598 62.4002 117.407 62.4237 117.22 62.47C117.043 62.5102 116.873 62.5813 116.72 62.68C116.575 62.7771 116.455 62.9073 116.37 63.06C116.278 63.2283 116.233 63.4183 116.24 63.61C116.231 63.7494 116.256 63.889 116.314 64.0163C116.371 64.1436 116.459 64.2548 116.57 64.34C116.825 64.5252 117.104 64.6734 117.4 64.78C117.73 64.9 118.09 65.02 118.48 65.14C118.86 65.2517 119.223 65.4131 119.56 65.62C119.893 65.8254 120.177 66.102 120.39 66.43C120.629 66.8311 120.744 67.2938 120.72 67.76C120.732 68.2158 120.636 68.668 120.44 69.08C120.26 69.4429 120 69.7607 119.68 70.01C119.351 70.2608 118.978 70.4474 118.58 70.56C118.152 70.6861 117.707 70.7501 117.26 70.75C116.681 70.7525 116.106 70.6544 115.56 70.46C115.013 70.2563 114.53 69.9112 114.16 69.46L115.43 68.24C115.633 68.5461 115.912 68.7942 116.24 68.96C116.749 69.2233 117.337 69.2874 117.89 69.14C118.078 69.0886 118.257 69.0076 118.42 68.9C118.579 68.7983 118.713 68.6615 118.81 68.5C118.911 68.3309 118.963 68.137 118.96 67.94C118.967 67.7921 118.941 67.6445 118.884 67.5079C118.827 67.3713 118.74 67.249 118.63 67.15C118.381 66.949 118.101 66.7903 117.8 66.68C117.47 66.55 117.11 66.43 116.72 66.31C116.341 66.2022 115.978 66.0441 115.64 65.84C115.309 65.6411 115.025 65.3713 114.81 65.05C114.57 64.6493 114.456 64.1862 114.48 63.72C114.467 63.2809 114.571 62.8462 114.78 62.46C114.976 62.1123 115.245 61.8118 115.57 61.58C115.909 61.3405 116.289 61.1643 116.69 61.06C117.117 60.9471 117.558 60.8932 118 60.9C118.492 60.8975 118.981 60.9717 119.45 61.12C119.919 61.2718 120.349 61.5244 120.71 61.86L119.45 63.14Z" fill="#332D2D"/>
<path d="M125.89 62.6399H122.99V61.1299H130.48V62.6399H127.58V70.4899H125.89V62.6399Z" fill="#332D2D"/>
<path d="M132.59 65.8499C132.584 65.1657 132.71 64.4866 132.96 63.8499C133.189 63.2615 133.54 62.7283 133.99 62.2853C134.44 61.8423 134.978 61.4997 135.57 61.2799C136.21 61.0421 136.888 60.9235 137.57 60.9299C138.251 60.9159 138.928 61.0243 139.57 61.2499C140.166 61.4655 140.708 61.8065 141.16 62.2499C141.597 62.6956 141.938 63.2267 142.16 63.8099C142.411 64.4464 142.537 65.1256 142.53 65.8099C142.541 66.4946 142.415 67.1745 142.16 67.8099C141.934 68.3855 141.594 68.9093 141.16 69.3499C140.701 69.7847 140.161 70.1245 139.57 70.3499C138.932 70.5954 138.254 70.7241 137.57 70.7299C136.888 70.7363 136.21 70.6177 135.57 70.3799C134.99 70.1588 134.462 69.8197 134.02 69.3843C133.578 68.9488 133.23 68.4264 133 67.8499C132.744 67.2147 132.618 66.5346 132.63 65.8499M134.4 65.7399C134.394 66.2132 134.472 66.6838 134.63 67.1299C134.775 67.5369 134.999 67.9109 135.29 68.2299C135.571 68.5382 135.911 68.7865 136.29 68.9599C136.71 69.1397 137.163 69.2283 137.62 69.2199C138.08 69.2279 138.536 69.1393 138.96 68.9599C139.34 68.787 139.68 68.5386 139.96 68.2299C140.251 67.9111 140.476 67.537 140.62 67.1299C140.778 66.6838 140.856 66.2132 140.85 65.7399C140.855 65.2928 140.777 64.8486 140.62 64.4299C140.472 64.0367 140.248 63.6765 139.96 63.3699C139.679 63.0669 139.339 62.8252 138.96 62.6599C138.536 62.4822 138.08 62.3937 137.62 62.3999C137.163 62.3933 136.711 62.4819 136.29 62.6599C135.912 62.8267 135.572 63.0682 135.29 63.3699C135.003 63.6766 134.779 64.0368 134.63 64.4299C134.473 64.8486 134.395 65.2928 134.4 65.7399Z" fill="#332D2D"/>
<path d="M145.72 61.1299H149C149.443 61.1294 149.886 61.1729 150.32 61.2599C150.719 61.3352 151.102 61.4808 151.45 61.6899C151.779 61.8917 152.051 62.1739 152.24 62.5099C152.449 62.914 152.549 63.3654 152.53 63.8199C152.55 64.4365 152.347 65.0396 151.96 65.5199C151.547 65.9943 150.967 66.2915 150.34 66.3499L152.85 70.4899H150.85L148.66 66.4899H147.4V70.4899H145.72V61.1299ZM148.72 65.1299C148.96 65.1299 149.2 65.1299 149.44 65.1299C149.667 65.1096 149.889 65.0557 150.1 64.9699C150.296 64.8909 150.465 64.7594 150.59 64.5899C150.727 64.3755 150.793 64.1238 150.78 63.8699C150.79 63.6366 150.727 63.406 150.6 63.2099C150.486 63.0422 150.326 62.9104 150.14 62.8299C149.943 62.743 149.734 62.6857 149.52 62.6599C149.3 62.6476 149.08 62.6476 148.86 62.6599H147.4V65.0999L148.72 65.1299Z" fill="#332D2D"/>
<path d="M155.65 61.1299H158.22L160.75 67.6899L163.3 61.1299H165.84V70.4899H164.24V62.7199H164.21L161.34 70.4899H160.16L157.28 62.7199H157.25V70.4899H155.65V61.1299Z" fill="#332D2D"/>
<path d="M174.93 61.1299H177.5L180.03 67.6899L182.58 61.1299H185.13V70.4899H183.52V62.7199H183.49L180.62 70.4899H179.44L176.57 62.7199H176.54V70.4899H174.93V61.1299Z" fill="#332D2D"/>
<path d="M188.75 61.1299H195.02V62.6399H190.43V64.9399H194.78V66.4399H190.43V68.9799H195.26V70.4899H188.75V61.1299Z" fill="#332D2D"/>
<path d="M198.39 61.13H202.12C202.734 61.1268 203.345 61.2214 203.93 61.41C204.497 61.5925 205.021 61.8885 205.47 62.28C205.928 62.6839 206.293 63.1819 206.54 63.74C206.819 64.3937 206.955 65.0994 206.94 65.81C206.959 66.5305 206.801 67.2446 206.48 67.89C206.19 68.452 205.785 68.9462 205.29 69.34C204.807 69.7223 204.258 70.0137 203.67 70.2C203.108 70.3829 202.521 70.4774 201.93 70.48H198.4L198.39 61.13ZM201.33 69C201.832 69.0018 202.333 68.9414 202.82 68.82C203.259 68.7126 203.673 68.5225 204.04 68.26C204.392 67.9998 204.674 67.6561 204.86 67.26C205.072 66.8031 205.175 66.3033 205.16 65.8C205.172 65.3031 205.08 64.8093 204.89 64.35C204.731 63.9602 204.476 63.6165 204.15 63.35C203.818 63.09 203.437 62.8995 203.03 62.79C202.567 62.6672 202.089 62.6067 201.61 62.61H200.07V69H201.33Z" fill="#332D2D"/>
<path d="M211.66 61.1299H209.97V70.4799H211.66V61.1299Z" fill="#332D2D"/>
<path d="M218.26 61.1299H219.72L223.8 70.4899H221.87L221 68.3499H216.89L216 70.4899H214.11L218.26 61.1299ZM220.4 66.9199L218.94 63.1199L217.45 66.9199H220.4Z" fill="#332D2D"/>
<path d="M119.71 39.2099C119.167 38.8802 118.675 38.4725 118.25 37.9999L117.99 37.6799V38.0899C117.84 44.8799 117.29 45.2199 117.18 45.2199C114.18 45.2199 114.18 23.0499 114.18 9.80989V9.63989H84.1802V23.4699C84.1802 31.1299 83.5401 39.8199 78.7701 46.2199L78.6602 46.3699L78.8302 46.4499C79.4385 46.7474 79.9822 47.162 80.4302 47.6699L80.5502 47.8399L80.6802 47.6699C84.6802 42.2999 86.5901 34.3799 86.5901 23.4599V11.9999H111.89V14.3399C112.1 33.7299 112.24 47.7399 117.02 47.7399C119.11 47.7399 119.58 45.5099 119.84 39.3999V39.3099L119.71 39.2099Z" fill="#332D2D"/>
<path d="M105.62 35.95L105.55 35.88L103.49 36.7L103.64 36.86C104.806 38.124 105.891 39.46 106.89 40.86L100 41.2V34.32H108.29V22.27H100V17.71C100.25 17.665 100.476 17.5341 100.64 17.34C103.356 16.9074 106.046 16.3299 108.7 15.61C108.816 15.6258 108.934 15.6258 109.05 15.61C109.149 15.6197 109.249 15.6087 109.344 15.5777C109.439 15.5467 109.526 15.4964 109.6 15.43L109.72 15.31L107.46 13.49H107.38C102.7 15 94.05 16.32 87.51 17H87.28L87.39 17.2C87.6714 17.732 87.8768 18.3009 88 18.89V19.03H88.14C90.99 18.75 94.25 18.33 97.58 17.83V22.28H89.38V34.32H97.58V41.32C93.07 41.54 88.94 41.72 86.19 41.84H86L87 44.7H87.12C87.2661 44.672 87.4016 44.6039 87.5111 44.5032C87.6206 44.4025 87.6999 44.2733 87.74 44.13C92.74 43.86 100.53 43.35 108.06 42.78C108.76 43.872 109.356 45.027 109.84 46.23L109.9 46.38L111.97 45.38V45.25C111.05 42.71 108.43 38.89 105.58 35.94M97.58 32.12H91.58V24.41H97.58V32.12ZM100 24.41H106.1V32.13H100V24.41Z" fill="#332D2D"/>
<path d="M141.08 8.75007C141.281 8.77308 141.484 8.73476 141.662 8.64015C141.841 8.54554 141.986 8.39908 142.08 8.22007L142.15 8.07007L139.15 7.07007V7.21007C136.65 15.0301 132.56 22.7801 128.48 27.4201L128.4 27.5101L128.47 27.6101C128.891 28.2134 129.281 28.8376 129.64 29.4801L129.75 29.6801L129.89 29.5101C131.809 27.1604 133.519 24.6475 135 22.0001V47.7401H137.41V18.3401C137.575 18.3323 137.735 18.2798 137.872 18.1882C138.009 18.0966 138.119 17.9694 138.19 17.8201L138.25 17.6601L137.43 17.4401C138.8 14.6141 140.008 11.7128 141.05 8.75007" fill="#332D2D"/>
<path d="M147.11 37.82L147.02 37.75L145.19 39L145.35 39.13C147.533 40.896 149.524 42.887 151.29 45.07L151.39 45.2L153.25 43.69L153.16 43.57C151.352 41.456 149.343 39.5235 147.16 37.8" fill="#332D2D"/>
<path d="M163.57 32.4599C163.703 32.4592 163.834 32.4282 163.954 32.3693C164.073 32.3104 164.178 32.2251 164.26 32.1199L166.43 32.0399C167.169 32.6927 167.867 33.3907 168.52 34.1299L168.61 34.2399L170.49 32.9199L170.38 32.7899C168.37 30.7306 166.148 28.8903 163.75 27.2999H167.75V15.3799H156.55V12.6599H169.75V10.5099H156.55V8.16992C156.726 8.16239 156.894 8.09631 157.028 7.98217C157.162 7.86804 157.254 7.71238 157.29 7.53992V7.36992L154.11 7.16992V10.5099H141.43V12.6599H154.15V15.3799H143.27V27.3099H154.14V30.3799C149.33 30.4599 144.69 30.5099 141.05 30.5099H140.84L141.69 33.2499H141.82C141.969 33.2237 142.11 33.1618 142.23 33.0696C142.35 32.9773 142.446 32.8573 142.51 32.7199C147.51 32.6299 154.46 32.4499 161.2 32.2399V35.3499H140.07V37.5399H161.21V44.8399C161.21 45.5199 161.21 45.5199 158.77 45.5199C157.89 45.5199 156.72 45.5199 155.36 45.4599H154.07L154.29 45.9799C154.543 46.5102 154.747 47.0625 154.9 47.6299V47.7499H155C159.53 47.7499 160.9 47.7499 161.93 47.4399C163.27 47.0399 163.53 46.2299 163.53 44.8799V37.5799H170.24V35.3299H163.53L163.57 32.4599ZM156.57 17.2999H165.38V20.3699H156.57V17.2999ZM156.57 22.2999H165.38V25.4099H156.57V22.2999ZM156.57 27.2999H161.49L160.83 27.7099L161.02 27.8399C161.83 28.3999 163.02 29.2499 164.27 30.2099C161.73 30.2899 159.16 30.3299 156.66 30.3699H156.56L156.57 27.2999ZM154.16 25.3699H145.61V22.2599H154.16V25.3699ZM154.16 20.3699H145.61V17.3099H154.16V20.3699Z" fill="#332D2D"/>
<path d="M214.98 16.54L207.35 17.78L205.88 23.3L214.98 16.54Z" fill="#332D2D"/>
<path d="M223.59 44.0801C219.568 41.6509 216.09 38.4207 213.37 34.5901H223.45V32.3501H211.57V28.3501C211.719 28.3463 211.864 28.3013 211.99 28.2201C212.115 28.1389 212.215 28.0247 212.28 27.8901H218.72V14.1501H223.59V11.8701H218.72V7.82006C218.897 7.8103 219.065 7.74218 219.199 7.62636C219.333 7.51055 219.425 7.35358 219.46 7.18006V7.01006L216.32 6.81006V11.8601H204.51V7.82006C204.685 7.81084 204.853 7.74416 204.986 7.63031C205.12 7.51645 205.213 7.36174 205.25 7.19006V7.02006L202.16 6.82006V11.8701H197.03V14.1501H202.16V27.8801H209.16V32.3601H197.58V34.5901H207.27C204.494 38.5673 200.888 41.894 196.7 44.3401L196.51 44.4401L196.67 44.5901C197.24 45.1011 197.747 45.6786 198.18 46.3101L198.26 46.4401L198.39 46.3601C202.636 43.5165 206.293 39.8799 209.16 35.6501V47.6501H211.57V35.6501C214.343 39.6963 217.83 43.2035 221.86 46.0001L221.98 46.0801L222.06 45.9601C222.494 45.3325 223.012 44.7672 223.6 44.2801L223.79 44.1401L223.59 44.0801ZM216.35 25.6901H204.51V14.1501H216.35V25.6901Z" fill="#332D2D"/>
<path d="M197.17 43.15L198.68 41.15L198.6 41C197.172 39.2723 195.593 37.6759 193.88 36.23C196.01 31.23 197.32 24.97 197.88 17.12C197.979 16.9841 198.054 16.8318 198.1 16.67V16.53L196.69 16.13L196.29 16.22H189.82C190.51 13 191.08 10.22 191.51 7.93003C191.99 7.93003 192.27 7.71003 192.32 7.37003V7.22003L189.22 6.78003L189.14 7.18003C188.63 9.93003 188.04 13.04 187.37 16.18H182.6V18.5H186.86C185.86 23.11 184.48 29.42 183.26 33.74V33.86L185.38 34.97L185.94 32.85C187.62 34.04 189.34 35.38 190.94 36.76C189.248 40.399 186.53 43.4645 183.12 45.58L182.93 45.69L183.1 45.83C183.64 46.3285 184.101 46.9049 184.47 47.54L184.55 47.68L184.68 47.59C188.175 45.33 190.984 42.1549 192.8 38.41C194.317 39.8287 195.721 41.3633 197 43L197.17 43.15ZM186.55 30.64C187.46 27 188.45 22.72 189.35 18.58H195.42C195.071 24.0589 193.894 29.4534 191.93 34.58C190.21 33.1506 188.414 31.8154 186.55 30.58" fill="#332D2D"/>
<path d="M81.4698 62.3999H78.5698V60.8999H86.0598V62.3999H83.1598V70.2499H81.4698V62.3999Z" fill="#332D2D"/>
<path d="M98.5801 60.8999H104.85V62.3999H100.27V64.6999H104.61V66.2099H100.27V68.7499H105.09V70.2499H98.5801V60.8999Z" fill="#332D2D"/>
<path d="M94.17 60.8101V64.6301H89.35V60.8101H87.73V70.2901H89.35V66.0801H94.17V70.2901H95.8V60.8101H94.17Z" fill="#332D2D"/>
</g>
<defs>
<clipPath id="clip0_205_502">
<rect width="223.8" height="70.73" fill="white"/>
</clipPath>
</defs>
</svg>
